<?xml version="1.0" encoding="UTF-8" standalone="no"?>
<!-- Created with Inkscape (http://www.inkscape.org/) -->

<svg
   xmlns:ns0="http://www.iki.fi/pav/software/textext/"
   xmlns:dc="http://purl.org/dc/elements/1.1/"
   xmlns:cc="http://creativecommons.org/ns#"
   xmlns:rdf="http://www.w3.org/1999/02/22-rdf-syntax-ns#"
   xmlns:svg="http://www.w3.org/2000/svg"
   xmlns="http://www.w3.org/2000/svg"
   xmlns:xlink="http://www.w3.org/1999/xlink"
   xmlns:sodipodi="http://sodipodi.sourceforge.net/DTD/sodipodi-0.dtd"
   xmlns:inkscape="http://www.inkscape.org/namespaces/inkscape"
   width="196.93405"
   height="157.12251"
   id="svg2"
   inkscape:label="Pozadí"
   version="1.1"
   inkscape:version="0.47 r22583"
   sodipodi:docname="baricentrickekoordinaty.svg">
  <sodipodi:namedview
     id="base"
     pagecolor="#ffffff"
     bordercolor="#666666"
     borderopacity="1.0"
     inkscape:pageopacity="0.0"
     inkscape:pageshadow="2"
     inkscape:zoom="1.979899"
     inkscape:cx="175.79955"
     inkscape:cy="59.245938"
     inkscape:document-units="px"
     inkscape:current-layer="layer1"
     showgrid="false"
     inkscape:window-width="1365"
     inkscape:window-height="750"
     inkscape:window-x="1"
     inkscape:window-y="0"
     inkscape:window-maximized="1" />
  <defs
     id="defs7944">
    <inkscape:perspective
       id="perspective7950"
       inkscape:persp3d-origin="372.04724 : 350.78739 : 1"
       inkscape:vp_z="744.09448 : 526.18109 : 1"
       inkscape:vp_y="0 : 1000 : 0"
       inkscape:vp_x="0 : 526.18109 : 1"
       sodipodi:type="inkscape:persp3d" />
    <inkscape:perspective
       sodipodi:type="inkscape:persp3d"
       inkscape:vp_x="0 : 0.5 : 1"
       inkscape:vp_y="0 : 1000 : 0"
       inkscape:vp_z="1 : 0.5 : 1"
       inkscape:persp3d-origin="0.5 : 0.33333333 : 1"
       id="perspective7964" />
    <inkscape:perspective
       sodipodi:type="inkscape:persp3d"
       inkscape:vp_x="0 : 0.5 : 1"
       inkscape:vp_y="0 : 1000 : 0"
       inkscape:vp_z="1 : 0.5 : 1"
       inkscape:persp3d-origin="0.5 : 0.33333333 : 1"
       id="perspective7964-1" />
    <defs
       id="defs8001">
      <g
         id="g8003">
        <symbol
           overflow="visible"
           id="textext-f74a0f10-0"
           style="overflow:visible">
          <path
             style="stroke:none"
             d=""
             id="path8006" />
        </symbol>
        <symbol
           overflow="visible"
           id="textext-f74a0f10-1"
           style="overflow:visible">
          <path
             style="stroke:none"
             d="M 6.265625,-5.671875 C 6.75,-6.453125 7.171875,-6.484375 7.53125,-6.5 c 0.125,-0.015625 0.140625,-0.171875 0.140625,-0.1875 0,-0.078125 -0.0625,-0.125 -0.140625,-0.125 -0.25,0 -0.546875,0.03125 -0.8125,0.03125 -0.328125,0 -0.671875,-0.03125 -0.984375,-0.03125 -0.0625,0 -0.1875,0 -0.1875,0.1875 0,0.109375 0.078125,0.125 0.15625,0.125 0.265625,0.015625 0.453125,0.125 0.453125,0.328125 0,0.15625 -0.140625,0.375 -0.140625,0.375 l -3.0625,4.875 -0.6875,-5.28125 C 2.265625,-6.375 2.5,-6.5 2.953125,-6.5 c 0.140625,0 0.25,0 0.25,-0.203125 0,-0.078125 -0.078125,-0.109375 -0.125,-0.109375 -0.40625,0 -0.828125,0.03125 -1.25,0.03125 -0.171875,0 -0.359375,0 -0.546875,0 -0.171875,0 -0.359375,-0.03125 -0.53125,-0.03125 -0.078125,0 -0.1875,0 -0.1875,0.1875 0,0.125 0.078125,0.125 0.25,0.125 0.546875,0 0.5625,0.09375 0.59375,0.34375 L 2.1875,-0.015625 C 2.21875,0.1875 2.265625,0.21875 2.390625,0.21875 c 0.15625,0 0.203125,-0.046875 0.28125,-0.171875 l 3.59375,-5.71875 z m 0,0"
             id="path8009" />
        </symbol>
        <symbol
           overflow="visible"
           id="textext-f74a0f10-2"
           style="overflow:visible">
          <path
             style="stroke:none"
             d=""
             id="path8012" />
        </symbol>
        <symbol
           overflow="visible"
           id="textext-f74a0f10-3"
           style="overflow:visible">
          <path
             style="stroke:none"
             d="M 3.59375,-2.21875 C 3.59375,-2.984375 3.5,-3.546875 3.1875,-4.03125 2.96875,-4.34375 2.53125,-4.625 1.984375,-4.625 c -1.625,0 -1.625,1.90625 -1.625,2.40625 0,0.5 0,2.359375 1.625,2.359375 1.609375,0 1.609375,-1.859375 1.609375,-2.359375 z M 1.984375,-0.0625 c -0.328125,0 -0.75,-0.1875 -0.890625,-0.75 C 1,-1.21875 1,-1.796875 1,-2.3125 1,-2.828125 1,-3.359375 1.09375,-3.734375 1.25,-4.28125 1.6875,-4.4375 1.984375,-4.4375 c 0.375,0 0.734375,0.234375 0.859375,0.640625 0.109375,0.375 0.125,0.875 0.125,1.484375 0,0.515625 0,1.03125 -0.09375,1.46875 -0.140625,0.640625 -0.609375,0.78125 -0.890625,0.78125 z m 0,0"
             id="path8015" />
        </symbol>
        <symbol
           overflow="visible"
           id="textext-f74a0f10-4"
           style="overflow:visible">
          <path
             style="stroke:none"
             d="m 2.328125,-4.4375 c 0,-0.1875 0,-0.1875 -0.203125,-0.1875 -0.453125,0.4375 -1.078125,0.4375 -1.359375,0.4375 l 0,0.25 c 0.15625,0 0.625,0 1,-0.1875 l 0,3.546875 c 0,0.234375 0,0.328125 -0.6875,0.328125 l -0.265625,0 0,0.25 c 0.125,0 0.984375,-0.03125 1.234375,-0.03125 0.21875,0 1.09375,0.03125 1.25,0.03125 l 0,-0.25 -0.265625,0 c -0.703125,0 -0.703125,-0.09375 -0.703125,-0.328125 l 0,-3.859375 z m 0,0"
             id="path8018" />
        </symbol>
        <symbol
           overflow="visible"
           id="textext-f74a0f10-5"
           style="overflow:visible">
          <path
             style="stroke:none"
             d="m 3.515625,-1.265625 -0.234375,0 c -0.015625,0.15625 -0.09375,0.5625 -0.1875,0.625 -0.046875,0.046875 -0.578125,0.046875 -0.6875,0.046875 l -1.28125,0 c 0.734375,-0.640625 0.984375,-0.84375 1.390625,-1.171875 0.515625,-0.40625 1,-0.84375 1,-1.5 0,-0.84375 -0.734375,-1.359375 -1.625,-1.359375 -0.859375,0 -1.453125,0.609375 -1.453125,1.25 0,0.34375 0.296875,0.390625 0.375,0.390625 0.15625,0 0.359375,-0.125 0.359375,-0.375 0,-0.125 -0.046875,-0.375 -0.40625,-0.375 C 0.984375,-4.21875 1.453125,-4.375 1.78125,-4.375 c 0.703125,0 1.0625,0.546875 1.0625,1.109375 0,0.609375 -0.4375,1.078125 -0.65625,1.328125 L 0.515625,-0.265625 C 0.4375,-0.203125 0.4375,-0.1875 0.4375,0 l 2.875,0 0.203125,-1.265625 z m 0,0"
             id="path8021" />
        </symbol>
      </g>
    </defs>
    <inkscape:perspective
       id="perspective8151"
       inkscape:persp3d-origin="0.5 : 0.33333333 : 1"
       inkscape:vp_z="1 : 0.5 : 1"
       inkscape:vp_y="0 : 1000 : 0"
       inkscape:vp_x="0 : 0.5 : 1"
       sodipodi:type="inkscape:persp3d" />
  </defs>
  <metadata
     id="metadata7947">
    <rdf:RDF>
      <cc:Work
         rdf:about="">
        <dc:format>image/svg+xml</dc:format>
        <dc:type
           rdf:resource="http://purl.org/dc/dcmitype/StillImage" />
        <dc:title></dc:title>
      </cc:Work>
    </rdf:RDF>
  </metadata>
  <g
     id="layer1"
     inkscape:groupmode="layer"
     inkscape:label="Vrstva 1"
     transform="translate(-245.55869,-259.10389)">
    <g
       id="g9515">
      <g
         transform="translate(-5.555839,2.0203051)"
         id="g9480">
        <path
           id="path7952"
           d="m 365.67522,268.48381 -68.69037,55.55839 83.37229,7.6057 -14.68192,-63.16409 z"
           style="fill:none;stroke:#000000;stroke-width:1px;stroke-linecap:butt;stroke-linejoin:miter;stroke-opacity:1" />
        <path
           id="path8276"
           d="m 297.41072,323.70147 54.10714,-17.94643"
           style="fill:none;stroke:#999999;stroke-width:1px;stroke-linecap:butt;stroke-linejoin:miter;stroke-opacity:1" />
        <path
           transform="matrix(2.55,0,0,2.55,-423.2857,-491.44713)"
           d="m 283.57142,319.68362 c 0,0.49312 -0.39975,0.89286 -0.89286,0.89286 -0.49311,0 -0.89286,-0.39974 -0.89286,-0.89286 0,-0.49311 0.39975,-0.89285 0.89286,-0.89285 0.49311,0 0.89286,0.39974 0.89286,0.89285 z"
           sodipodi:ry="0.89285713"
           sodipodi:rx="0.89285713"
           sodipodi:cy="319.68362"
           sodipodi:cx="282.67856"
           id="path7954"
           style="fill:#000000;fill-opacity:1;stroke:none"
           sodipodi:type="arc" />
        <path
           id="path8280"
           d="m 365.71429,268.79075 -13.92857,37.05357"
           style="fill:none;stroke:#999999;stroke-width:1px;stroke-linecap:butt;stroke-linejoin:miter;stroke-opacity:1" />
        <path
           transform="matrix(2.55,0,0,2.55,-355.05662,-546.59189)"
           d="m 283.57142,319.68362 c 0,0.49312 -0.39975,0.89286 -0.89286,0.89286 -0.49311,0 -0.89286,-0.39974 -0.89286,-0.89286 0,-0.49311 0.39975,-0.89285 0.89286,-0.89285 0.49311,0 0.89286,0.39974 0.89286,0.89285 z"
           sodipodi:ry="0.89285713"
           sodipodi:rx="0.89285713"
           sodipodi:cy="319.68362"
           sodipodi:cx="282.67856"
           id="path7954-5"
           style="fill:#000000;fill-opacity:1;stroke:none"
           sodipodi:type="arc" />
        <path
           id="path8278"
           d="M 380.80357,331.6479 351.60714,305.84432"
           style="fill:none;stroke:#999999;stroke-width:1px;stroke-linecap:butt;stroke-linejoin:miter;stroke-opacity:1" />
        <path
           transform="matrix(2.55,0,0,2.55,-340.31849,-483.70117)"
           d="m 283.57142,319.68362 c 0,0.49312 -0.39975,0.89286 -0.89286,0.89286 -0.49311,0 -0.89286,-0.39974 -0.89286,-0.89286 0,-0.49311 0.39975,-0.89285 0.89286,-0.89285 0.49311,0 0.89286,0.39974 0.89286,0.89285 z"
           sodipodi:ry="0.89285713"
           sodipodi:rx="0.89285713"
           sodipodi:cy="319.68362"
           sodipodi:cx="282.67856"
           id="path7954-2"
           style="fill:#000000;fill-opacity:1;stroke:none"
           sodipodi:type="arc" />
        <g
           id="g8125"
           transform="translate(-54.548237,131.31983)">
          <g
             transform="scale(1.5,1.5)"
             style="fill:#000000;fill-opacity:1"
             id="g8024">
            <use
               height="1052.3622"
               width="744.09448"
               xlink:href="#textext-f74a0f10-1"
               x="223.43201"
               y="134.765"
               id="use8026" />
          </g>
          <g
             transform="scale(1.5,1.5)"
             style="fill:#000000;fill-opacity:1"
             id="g8028">
            <use
               height="1052.3622"
               width="744.09448"
               xlink:href="#textext-f74a0f10-3"
               x="229.244"
               y="136.259"
               id="use8030" />
          </g>
        </g>
        <g
           id="g8131"
           transform="translate(27.274119,140.4112)">
          <g
             transform="scale(1.5,1.5)"
             style="fill:#000000;fill-opacity:1"
             id="g8032">
            <use
               height="1052.3622"
               width="744.09448"
               xlink:href="#textext-f74a0f10-1"
               x="237.034"
               y="134.765"
               id="use8034" />
          </g>
          <g
             transform="scale(1.5,1.5)"
             style="fill:#000000;fill-opacity:1"
             id="g8036">
            <use
               height="1052.3622"
               width="744.09448"
               xlink:href="#textext-f74a0f10-4"
               x="242.845"
               y="136.259"
               id="use8038" />
          </g>
        </g>
        <g
           id="g8137"
           transform="translate(-8.0812204,65.154839)">
          <g
             transform="scale(1.5,1.5)"
             style="fill:#000000;fill-opacity:1"
             id="g8040">
            <use
               height="1052.3622"
               width="744.09448"
               xlink:href="#textext-f74a0f10-1"
               x="250.636"
               y="134.765"
               id="use8042" />
          </g>
          <g
             transform="scale(1.5,1.5)"
             style="fill:#000000;fill-opacity:1"
             id="g8044">
            <use
               height="1052.3622"
               width="744.09448"
               xlink:href="#textext-f74a0f10-5"
               x="256.44699"
               y="136.259"
               id="use8046" />
          </g>
        </g>
        <path
           transform="matrix(2.55,0,0,2.55,-369.2666,-509.51236)"
           d="m 283.57142,319.68362 c 0,0.49312 -0.39975,0.89286 -0.89286,0.89286 -0.49311,0 -0.89286,-0.39974 -0.89286,-0.89286 0,-0.49311 0.39975,-0.89285 0.89286,-0.89285 0.49311,0 0.89286,0.39974 0.89286,0.89285 z"
           sodipodi:ry="0.89285713"
           sodipodi:rx="0.89285713"
           sodipodi:cy="319.68362"
           sodipodi:cx="282.67856"
           id="path7954-6"
           style="fill:#000000;fill-opacity:1;stroke:none"
           sodipodi:type="arc" />
        <g
           transform="matrix(1.5,0,0,1.5,20.714286,104.64286)"
           ns0:text="$P$\n"
           ns0:preamble=""
           id="g8208">
          <defs
             id="defs8210">
            <g
               id="g8212">
              <symbol
                 style="overflow:visible"
                 overflow="visible"
                 id="textext-06fbb230-0">
                <path
                   style="stroke:none"
                   d=""
                   id="path8215" />
              </symbol>
              <symbol
                 style="overflow:visible"
                 overflow="visible"
                 id="textext-06fbb230-1">
                <path
                   style="stroke:none"
                   d="m 3.015625,-3.15625 1.703125,0 c 1.40625,0 2.796875,-1.03125 2.796875,-2.140625 0,-0.78125 -0.65625,-1.515625 -1.96875,-1.515625 l -3.21875,0 c -0.1875,0 -0.296875,0 -0.296875,0.1875 0,0.125 0.078125,0.125 0.28125,0.125 0.125,0 0.3125,0.015625 0.421875,0.015625 0.171875,0.03125 0.21875,0.046875 0.21875,0.171875 0,0.03125 0,0.0625 -0.03125,0.1875 l -1.34375,5.34375 c -0.09375,0.390625 -0.109375,0.46875 -0.90625,0.46875 -0.15625,0 -0.265625,0 -0.265625,0.1875 C 0.40625,0 0.515625,0 0.546875,0 0.828125,0 1.53125,-0.03125 1.8125,-0.03125 c 0.21875,0 0.4375,0.015625 0.640625,0.015625 0.21875,0 0.4375,0.015625 0.640625,0.015625 0.078125,0 0.203125,0 0.203125,-0.203125 0,-0.109375 -0.09375,-0.109375 -0.28125,-0.109375 -0.359375,0 -0.640625,0 -0.640625,-0.171875 0,-0.0625 0.015625,-0.109375 0.03125,-0.171875 l 0.609375,-2.5 z M 3.734375,-6.125 C 3.828125,-6.46875 3.84375,-6.5 4.28125,-6.5 l 0.953125,0 c 0.828125,0 1.359375,0.265625 1.359375,0.953125 0,0.390625 -0.203125,1.25 -0.59375,1.609375 -0.5,0.453125 -1.09375,0.53125 -1.53125,0.53125 l -1.40625,0 0.671875,-2.71875 z m 0,0"
                   id="path8218" />
              </symbol>
            </g>
          </defs>
          <g
             id="textext-06fbb230-2">
            <g
               style="fill:#000000;fill-opacity:1"
               id="g8221">
              <use
                 height="1052.3622"
                 width="744.09448"
                 xlink:href="#textext-06fbb230-1"
                 x="223.43201"
                 y="134.765"
                 id="use8223" />
            </g>
          </g>
        </g>
      </g>
      <g
         transform="matrix(1.5,0,0,1.5,-90.198696,163.96447)"
         ns0:text="$P=V_0 \\cdot w_0 + V_1 \\cdot w_1 + V_2 \\cdot w_2$"
         ns0:preamble=""
         id="g8338">
        <defs
           id="defs8340">
          <g
             id="g8342">
            <symbol
               style="overflow:visible"
               overflow="visible"
               id="textext-1f116959-0">
              <path
                 style="stroke:none"
                 d=""
                 id="path8345" />
            </symbol>
            <symbol
               style="overflow:visible"
               overflow="visible"
               id="textext-1f116959-1">
              <path
                 style="stroke:none"
                 d="m 3.015625,-3.15625 1.703125,0 c 1.40625,0 2.796875,-1.03125 2.796875,-2.140625 0,-0.78125 -0.65625,-1.515625 -1.96875,-1.515625 l -3.21875,0 c -0.1875,0 -0.296875,0 -0.296875,0.1875 0,0.125 0.078125,0.125 0.28125,0.125 0.125,0 0.3125,0.015625 0.421875,0.015625 0.171875,0.03125 0.21875,0.046875 0.21875,0.171875 0,0.03125 0,0.0625 -0.03125,0.1875 l -1.34375,5.34375 c -0.09375,0.390625 -0.109375,0.46875 -0.90625,0.46875 -0.15625,0 -0.265625,0 -0.265625,0.1875 C 0.40625,0 0.515625,0 0.546875,0 0.828125,0 1.53125,-0.03125 1.8125,-0.03125 c 0.21875,0 0.4375,0.015625 0.640625,0.015625 0.21875,0 0.4375,0.015625 0.640625,0.015625 0.078125,0 0.203125,0 0.203125,-0.203125 0,-0.109375 -0.09375,-0.109375 -0.28125,-0.109375 -0.359375,0 -0.640625,0 -0.640625,-0.171875 0,-0.0625 0.015625,-0.109375 0.03125,-0.171875 l 0.609375,-2.5 z M 3.734375,-6.125 C 3.828125,-6.46875 3.84375,-6.5 4.28125,-6.5 l 0.953125,0 c 0.828125,0 1.359375,0.265625 1.359375,0.953125 0,0.390625 -0.203125,1.25 -0.59375,1.609375 -0.5,0.453125 -1.09375,0.53125 -1.53125,0.53125 l -1.40625,0 0.671875,-2.71875 z m 0,0"
                 id="path8348" />
            </symbol>
            <symbol
               style="overflow:visible"
               overflow="visible"
               id="textext-1f116959-2">
              <path
                 style="stroke:none"
                 d="M 6.265625,-5.671875 C 6.75,-6.453125 7.171875,-6.484375 7.53125,-6.5 c 0.125,-0.015625 0.140625,-0.171875 0.140625,-0.1875 0,-0.078125 -0.0625,-0.125 -0.140625,-0.125 -0.25,0 -0.546875,0.03125 -0.8125,0.03125 -0.328125,0 -0.671875,-0.03125 -0.984375,-0.03125 -0.0625,0 -0.1875,0 -0.1875,0.1875 0,0.109375 0.078125,0.125 0.15625,0.125 0.265625,0.015625 0.453125,0.125 0.453125,0.328125 0,0.15625 -0.140625,0.375 -0.140625,0.375 l -3.0625,4.875 -0.6875,-5.28125 C 2.265625,-6.375 2.5,-6.5 2.953125,-6.5 c 0.140625,0 0.25,0 0.25,-0.203125 0,-0.078125 -0.078125,-0.109375 -0.125,-0.109375 -0.40625,0 -0.828125,0.03125 -1.25,0.03125 -0.171875,0 -0.359375,0 -0.546875,0 -0.171875,0 -0.359375,-0.03125 -0.53125,-0.03125 -0.078125,0 -0.1875,0 -0.1875,0.1875 0,0.125 0.078125,0.125 0.25,0.125 0.546875,0 0.5625,0.09375 0.59375,0.34375 L 2.1875,-0.015625 C 2.21875,0.1875 2.265625,0.21875 2.390625,0.21875 c 0.15625,0 0.203125,-0.046875 0.28125,-0.171875 l 3.59375,-5.71875 z m 0,0"
                 id="path8351" />
            </symbol>
            <symbol
               style="overflow:visible"
               overflow="visible"
               id="textext-1f116959-3">
              <path
                 style="stroke:none"
                 d="M 4.609375,-3.375 C 4.65625,-3.59375 4.75,-3.96875 4.75,-4.03125 c 0,-0.171875 -0.140625,-0.265625 -0.28125,-0.265625 -0.125,0 -0.296875,0.078125 -0.375,0.28125 -0.03125,0.0625 -0.5,1.96875 -0.5625,2.234375 C 3.453125,-1.484375 3.4375,-1.3125 3.4375,-1.125 c 0,0.109375 0,0.125 0.015625,0.171875 -0.234375,0.53125 -0.53125,0.84375 -0.921875,0.84375 -0.796875,0 -0.796875,-0.734375 -0.796875,-0.90625 0,-0.3125 0.046875,-0.703125 0.515625,-1.9375 0.109375,-0.296875 0.171875,-0.4375 0.171875,-0.640625 0,-0.4375 -0.328125,-0.8125 -0.8125,-0.8125 -0.953125,0 -1.3125,1.453125 -1.3125,1.53125 0,0.109375 0.09375,0.109375 0.109375,0.109375 0.109375,0 0.109375,-0.03125 0.15625,-0.1875 C 0.84375,-3.875 1.21875,-4.1875 1.578125,-4.1875 c 0.09375,0 0.25,0.015625 0.25,0.328125 0,0.25 -0.109375,0.53125 -0.1875,0.703125 -0.4375,1.171875 -0.546875,1.625 -0.546875,2.015625 0,0.90625 0.65625,1.25 1.40625,1.25 0.171875,0 0.640625,0 1.03125,-0.703125 0.265625,0.640625 0.953125,0.703125 1.25,0.703125 0.75,0 1.1875,-0.625 1.453125,-1.21875 0.328125,-0.78125 0.65625,-2.125 0.65625,-2.59375 0,-0.546875 -0.265625,-0.703125 -0.4375,-0.703125 -0.25,0 -0.5,0.265625 -0.5,0.484375 0,0.125 0.0625,0.1875 0.140625,0.265625 0.109375,0.109375 0.359375,0.359375 0.359375,0.84375 0,0.34375 -0.28125,1.3125 -0.546875,1.828125 -0.25,0.53125 -0.609375,0.875 -1.09375,0.875 -0.46875,0 -0.734375,-0.296875 -0.734375,-0.875 0,-0.265625 0.0625,-0.578125 0.109375,-0.71875 L 4.609375,-3.375 z m 0,0"
                 id="path8354" />
            </symbol>
            <symbol
               style="overflow:visible"
               overflow="visible"
               id="textext-1f116959-4">
              <path
                 style="stroke:none"
                 d=""
                 id="path8357" />
            </symbol>
            <symbol
               style="overflow:visible"
               overflow="visible"
               id="textext-1f116959-5">
              <path
                 style="stroke:none"
                 d="m 6.84375,-3.265625 c 0.15625,0 0.34375,0 0.34375,-0.1875 C 7.1875,-3.65625 7,-3.65625 6.859375,-3.65625 l -5.96875,0 c -0.140625,0 -0.328125,0 -0.328125,0.203125 0,0.1875 0.1875,0.1875 0.328125,0.1875 l 5.953125,0 z m 0.015625,1.9375 c 0.140625,0 0.328125,0 0.328125,-0.203125 0,-0.1875 -0.1875,-0.1875 -0.34375,-0.1875 l -5.953125,0 c -0.140625,0 -0.328125,0 -0.328125,0.1875 0,0.203125 0.1875,0.203125 0.328125,0.203125 l 5.96875,0 z m 0,0"
                 id="path8360" />
            </symbol>
            <symbol
               style="overflow:visible"
               overflow="visible"
               id="textext-1f116959-6">
              <path
                 style="stroke:none"
                 d="m 4.078125,-2.296875 2.78125,0 C 7,-2.296875 7.1875,-2.296875 7.1875,-2.5 7.1875,-2.6875 7,-2.6875 6.859375,-2.6875 l -2.78125,0 0,-2.796875 c 0,-0.140625 0,-0.328125 -0.203125,-0.328125 -0.203125,0 -0.203125,0.1875 -0.203125,0.328125 l 0,2.796875 -2.78125,0 c -0.140625,0 -0.328125,0 -0.328125,0.1875 0,0.203125 0.1875,0.203125 0.328125,0.203125 l 2.78125,0 0,2.796875 c 0,0.140625 0,0.328125 0.203125,0.328125 0.203125,0 0.203125,-0.1875 0.203125,-0.328125 l 0,-2.796875 z m 0,0"
                 id="path8363" />
            </symbol>
            <symbol
               style="overflow:visible"
               overflow="visible"
               id="textext-1f116959-7">
              <path
                 style="stroke:none"
                 d=""
                 id="path8366" />
            </symbol>
            <symbol
               style="overflow:visible"
               overflow="visible"
               id="textext-1f116959-8">
              <path
                 style="stroke:none"
                 d="M 3.59375,-2.21875 C 3.59375,-2.984375 3.5,-3.546875 3.1875,-4.03125 2.96875,-4.34375 2.53125,-4.625 1.984375,-4.625 c -1.625,0 -1.625,1.90625 -1.625,2.40625 0,0.5 0,2.359375 1.625,2.359375 1.609375,0 1.609375,-1.859375 1.609375,-2.359375 z M 1.984375,-0.0625 c -0.328125,0 -0.75,-0.1875 -0.890625,-0.75 C 1,-1.21875 1,-1.796875 1,-2.3125 1,-2.828125 1,-3.359375 1.09375,-3.734375 1.25,-4.28125 1.6875,-4.4375 1.984375,-4.4375 c 0.375,0 0.734375,0.234375 0.859375,0.640625 0.109375,0.375 0.125,0.875 0.125,1.484375 0,0.515625 0,1.03125 -0.09375,1.46875 -0.140625,0.640625 -0.609375,0.78125 -0.890625,0.78125 z m 0,0"
                 id="path8369" />
            </symbol>
            <symbol
               style="overflow:visible"
               overflow="visible"
               id="textext-1f116959-9">
              <path
                 style="stroke:none"
                 d="m 2.328125,-4.4375 c 0,-0.1875 0,-0.1875 -0.203125,-0.1875 -0.453125,0.4375 -1.078125,0.4375 -1.359375,0.4375 l 0,0.25 c 0.15625,0 0.625,0 1,-0.1875 l 0,3.546875 c 0,0.234375 0,0.328125 -0.6875,0.328125 l -0.265625,0 0,0.25 c 0.125,0 0.984375,-0.03125 1.234375,-0.03125 0.21875,0 1.09375,0.03125 1.25,0.03125 l 0,-0.25 -0.265625,0 c -0.703125,0 -0.703125,-0.09375 -0.703125,-0.328125 l 0,-3.859375 z m 0,0"
                 id="path8372" />
            </symbol>
            <symbol
               style="overflow:visible"
               overflow="visible"
               id="textext-1f116959-10">
              <path
                 style="stroke:none"
                 d="m 3.515625,-1.265625 -0.234375,0 c -0.015625,0.15625 -0.09375,0.5625 -0.1875,0.625 -0.046875,0.046875 -0.578125,0.046875 -0.6875,0.046875 l -1.28125,0 c 0.734375,-0.640625 0.984375,-0.84375 1.390625,-1.171875 0.515625,-0.40625 1,-0.84375 1,-1.5 0,-0.84375 -0.734375,-1.359375 -1.625,-1.359375 -0.859375,0 -1.453125,0.609375 -1.453125,1.25 0,0.34375 0.296875,0.390625 0.375,0.390625 0.15625,0 0.359375,-0.125 0.359375,-0.375 0,-0.125 -0.046875,-0.375 -0.40625,-0.375 C 0.984375,-4.21875 1.453125,-4.375 1.78125,-4.375 c 0.703125,0 1.0625,0.546875 1.0625,1.109375 0,0.609375 -0.4375,1.078125 -0.65625,1.328125 L 0.515625,-0.265625 C 0.4375,-0.203125 0.4375,-0.1875 0.4375,0 l 2.875,0 0.203125,-1.265625 z m 0,0"
                 id="path8375" />
            </symbol>
            <symbol
               style="overflow:visible"
               overflow="visible"
               id="textext-1f116959-11">
              <path
                 style="stroke:none"
                 d=""
                 id="path8378" />
            </symbol>
            <symbol
               style="overflow:visible"
               overflow="visible"
               id="textext-1f116959-12">
              <path
                 style="stroke:none"
                 d="m 1.90625,-2.5 c 0,-0.28125 -0.234375,-0.515625 -0.515625,-0.515625 -0.296875,0 -0.53125,0.234375 -0.53125,0.515625 0,0.296875 0.234375,0.53125 0.53125,0.53125 0.28125,0 0.515625,-0.234375 0.515625,-0.53125 z m 0,0"
                 id="path8381" />
            </symbol>
          </g>
        </defs>
        <g
           id="textext-1f116959-13">
          <g
             style="fill:#000000;fill-opacity:1"
             id="g8384">
            <use
               height="1052.3622"
               width="744.09448"
               xlink:href="#textext-1f116959-1"
               x="223.43201"
               y="134.765"
               id="use8386" />
          </g>
          <g
             style="fill:#000000;fill-opacity:1"
             id="g8388">
            <use
               height="1052.3622"
               width="744.09448"
               xlink:href="#textext-1f116959-5"
               x="233.979"
               y="134.765"
               id="use8390" />
          </g>
          <g
             style="fill:#000000;fill-opacity:1"
             id="g8392">
            <use
               height="1052.3622"
               width="744.09448"
               xlink:href="#textext-1f116959-2"
               x="244.495"
               y="134.765"
               id="use8394" />
          </g>
          <g
             style="fill:#000000;fill-opacity:1"
             id="g8396">
            <use
               height="1052.3622"
               width="744.09448"
               xlink:href="#textext-1f116959-8"
               x="250.30701"
               y="136.259"
               id="use8398" />
          </g>
          <g
             style="fill:#000000;fill-opacity:1"
             id="g8400">
            <use
               height="1052.3622"
               width="744.09448"
               xlink:href="#textext-1f116959-12"
               x="256.98999"
               y="134.765"
               id="use8402" />
          </g>
          <g
             style="fill:#000000;fill-opacity:1"
             id="g8404">
            <use
               height="1052.3622"
               width="744.09448"
               xlink:href="#textext-1f116959-3"
               x="261.97101"
               y="134.765"
               id="use8406" />
          </g>
          <g
             style="fill:#000000;fill-opacity:1"
             id="g8408">
            <use
               height="1052.3622"
               width="744.09448"
               xlink:href="#textext-1f116959-8"
               x="269.104"
               y="136.259"
               id="use8410" />
          </g>
          <g
             style="fill:#000000;fill-opacity:1"
             id="g8412">
            <use
               height="1052.3622"
               width="744.09448"
               xlink:href="#textext-1f116959-6"
               x="275.78699"
               y="134.765"
               id="use8414" />
          </g>
          <g
             style="fill:#000000;fill-opacity:1"
             id="g8416">
            <use
               height="1052.3622"
               width="744.09448"
               xlink:href="#textext-1f116959-2"
               x="285.75"
               y="134.765"
               id="use8418" />
          </g>
          <g
             style="fill:#000000;fill-opacity:1"
             id="g8420">
            <use
               height="1052.3622"
               width="744.09448"
               xlink:href="#textext-1f116959-9"
               x="291.561"
               y="136.259"
               id="use8422" />
          </g>
          <g
             style="fill:#000000;fill-opacity:1"
             id="g8424">
            <use
               height="1052.3622"
               width="744.09448"
               xlink:href="#textext-1f116959-12"
               x="298.24399"
               y="134.765"
               id="use8426" />
          </g>
          <g
             style="fill:#000000;fill-opacity:1"
             id="g8428">
            <use
               height="1052.3622"
               width="744.09448"
               xlink:href="#textext-1f116959-3"
               x="303.22601"
               y="134.765"
               id="use8430" />
          </g>
          <g
             style="fill:#000000;fill-opacity:1"
             id="g8432">
            <use
               height="1052.3622"
               width="744.09448"
               xlink:href="#textext-1f116959-9"
               x="310.358"
               y="136.259"
               id="use8434" />
          </g>
          <g
             style="fill:#000000;fill-opacity:1"
             id="g8436">
            <use
               height="1052.3622"
               width="744.09448"
               xlink:href="#textext-1f116959-6"
               x="317.04099"
               y="134.765"
               id="use8438" />
          </g>
          <g
             style="fill:#000000;fill-opacity:1"
             id="g8440">
            <use
               height="1052.3622"
               width="744.09448"
               xlink:href="#textext-1f116959-2"
               x="327.004"
               y="134.765"
               id="use8442" />
          </g>
          <g
             style="fill:#000000;fill-opacity:1"
             id="g8444">
            <use
               height="1052.3622"
               width="744.09448"
               xlink:href="#textext-1f116959-10"
               x="332.81601"
               y="136.259"
               id="use8446" />
          </g>
          <g
             style="fill:#000000;fill-opacity:1"
             id="g8448">
            <use
               height="1052.3622"
               width="744.09448"
               xlink:href="#textext-1f116959-12"
               x="339.49899"
               y="134.765"
               id="use8450" />
          </g>
          <g
             style="fill:#000000;fill-opacity:1"
             id="g8452">
            <use
               height="1052.3622"
               width="744.09448"
               xlink:href="#textext-1f116959-3"
               x="344.48001"
               y="134.765"
               id="use8454" />
          </g>
          <g
             style="fill:#000000;fill-opacity:1"
             id="g8456">
            <use
               height="1052.3622"
               width="744.09448"
               xlink:href="#textext-1f116959-10"
               x="351.612"
               y="136.259"
               id="use8458" />
          </g>
        </g>
      </g>
      <g
         style="fill:#ff0000"
         id="g8706"
         ns0:preamble=""
         ns0:text="$w_0, w_1, w_2 \\in \\left\\langle 0,1 \\right\\rangle$"
         transform="matrix(1.5,0,0,1.5,-47.47717,189.4036)">
        <defs
           id="defs8708">
          <g
             id="g8710">
            <symbol
               id="textext-cff9c579-0"
               overflow="visible"
               style="overflow:visible">
              <path
                 id="path8713"
                 d=""
                 style="stroke:none" />
            </symbol>
            <symbol
               id="textext-cff9c579-1"
               overflow="visible"
               style="overflow:visible">
              <path
                 id="path8716"
                 d="M 4.609375,-3.375 C 4.65625,-3.59375 4.75,-3.96875 4.75,-4.03125 c 0,-0.171875 -0.140625,-0.265625 -0.28125,-0.265625 -0.125,0 -0.296875,0.078125 -0.375,0.28125 -0.03125,0.0625 -0.5,1.96875 -0.5625,2.234375 C 3.453125,-1.484375 3.4375,-1.3125 3.4375,-1.125 c 0,0.109375 0,0.125 0.015625,0.171875 -0.234375,0.53125 -0.53125,0.84375 -0.921875,0.84375 -0.796875,0 -0.796875,-0.734375 -0.796875,-0.90625 0,-0.3125 0.046875,-0.703125 0.515625,-1.9375 0.109375,-0.296875 0.171875,-0.4375 0.171875,-0.640625 0,-0.4375 -0.328125,-0.8125 -0.8125,-0.8125 -0.953125,0 -1.3125,1.453125 -1.3125,1.53125 0,0.109375 0.09375,0.109375 0.109375,0.109375 0.109375,0 0.109375,-0.03125 0.15625,-0.1875 C 0.84375,-3.875 1.21875,-4.1875 1.578125,-4.1875 c 0.09375,0 0.25,0.015625 0.25,0.328125 0,0.25 -0.109375,0.53125 -0.1875,0.703125 -0.4375,1.171875 -0.546875,1.625 -0.546875,2.015625 0,0.90625 0.65625,1.25 1.40625,1.25 0.171875,0 0.640625,0 1.03125,-0.703125 0.265625,0.640625 0.953125,0.703125 1.25,0.703125 0.75,0 1.1875,-0.625 1.453125,-1.21875 0.328125,-0.78125 0.65625,-2.125 0.65625,-2.59375 0,-0.546875 -0.265625,-0.703125 -0.4375,-0.703125 -0.25,0 -0.5,0.265625 -0.5,0.484375 0,0.125 0.0625,0.1875 0.140625,0.265625 0.109375,0.109375 0.359375,0.359375 0.359375,0.84375 0,0.34375 -0.28125,1.3125 -0.546875,1.828125 -0.25,0.53125 -0.609375,0.875 -1.09375,0.875 -0.46875,0 -0.734375,-0.296875 -0.734375,-0.875 0,-0.265625 0.0625,-0.578125 0.109375,-0.71875 L 4.609375,-3.375 z m 0,0"
                 style="stroke:none" />
            </symbol>
            <symbol
               id="textext-cff9c579-2"
               overflow="visible"
               style="overflow:visible">
              <path
                 id="path8719"
                 d="m 2.03125,-0.015625 c 0,-0.65625 -0.25,-1.046875 -0.640625,-1.046875 -0.328125,0 -0.53125,0.25 -0.53125,0.53125 C 0.859375,-0.265625 1.0625,0 1.390625,0 1.5,0 1.640625,-0.046875 1.734375,-0.125 1.765625,-0.15625 1.78125,-0.15625 1.78125,-0.15625 c 0.015625,0 0.015625,0 0.015625,0.140625 0,0.75 -0.34375,1.34375 -0.671875,1.671875 -0.109375,0.109375 -0.109375,0.125 -0.109375,0.15625 0,0.078125 0.046875,0.109375 0.09375,0.109375 0.109375,0 0.921875,-0.765625 0.921875,-1.9375 z m 0,0"
                 style="stroke:none" />
            </symbol>
            <symbol
               id="textext-cff9c579-3"
               overflow="visible"
               style="overflow:visible">
              <path
                 id="path8722"
                 d=""
                 style="stroke:none" />
            </symbol>
            <symbol
               id="textext-cff9c579-4"
               overflow="visible"
               style="overflow:visible">
              <path
                 id="path8725"
                 d="M 3.59375,-2.21875 C 3.59375,-2.984375 3.5,-3.546875 3.1875,-4.03125 2.96875,-4.34375 2.53125,-4.625 1.984375,-4.625 c -1.625,0 -1.625,1.90625 -1.625,2.40625 0,0.5 0,2.359375 1.625,2.359375 1.609375,0 1.609375,-1.859375 1.609375,-2.359375 z M 1.984375,-0.0625 c -0.328125,0 -0.75,-0.1875 -0.890625,-0.75 C 1,-1.21875 1,-1.796875 1,-2.3125 1,-2.828125 1,-3.359375 1.09375,-3.734375 1.25,-4.28125 1.6875,-4.4375 1.984375,-4.4375 c 0.375,0 0.734375,0.234375 0.859375,0.640625 0.109375,0.375 0.125,0.875 0.125,1.484375 0,0.515625 0,1.03125 -0.09375,1.46875 -0.140625,0.640625 -0.609375,0.78125 -0.890625,0.78125 z m 0,0"
                 style="stroke:none" />
            </symbol>
            <symbol
               id="textext-cff9c579-5"
               overflow="visible"
               style="overflow:visible">
              <path
                 id="path8728"
                 d="m 2.328125,-4.4375 c 0,-0.1875 0,-0.1875 -0.203125,-0.1875 -0.453125,0.4375 -1.078125,0.4375 -1.359375,0.4375 l 0,0.25 c 0.15625,0 0.625,0 1,-0.1875 l 0,3.546875 c 0,0.234375 0,0.328125 -0.6875,0.328125 l -0.265625,0 0,0.25 c 0.125,0 0.984375,-0.03125 1.234375,-0.03125 0.21875,0 1.09375,0.03125 1.25,0.03125 l 0,-0.25 -0.265625,0 c -0.703125,0 -0.703125,-0.09375 -0.703125,-0.328125 l 0,-3.859375 z m 0,0"
                 style="stroke:none" />
            </symbol>
            <symbol
               id="textext-cff9c579-6"
               overflow="visible"
               style="overflow:visible">
              <path
                 id="path8731"
                 d="m 3.515625,-1.265625 -0.234375,0 c -0.015625,0.15625 -0.09375,0.5625 -0.1875,0.625 -0.046875,0.046875 -0.578125,0.046875 -0.6875,0.046875 l -1.28125,0 c 0.734375,-0.640625 0.984375,-0.84375 1.390625,-1.171875 0.515625,-0.40625 1,-0.84375 1,-1.5 0,-0.84375 -0.734375,-1.359375 -1.625,-1.359375 -0.859375,0 -1.453125,0.609375 -1.453125,1.25 0,0.34375 0.296875,0.390625 0.375,0.390625 0.15625,0 0.359375,-0.125 0.359375,-0.375 0,-0.125 -0.046875,-0.375 -0.40625,-0.375 C 0.984375,-4.21875 1.453125,-4.375 1.78125,-4.375 c 0.703125,0 1.0625,0.546875 1.0625,1.109375 0,0.609375 -0.4375,1.078125 -0.65625,1.328125 L 0.515625,-0.265625 C 0.4375,-0.203125 0.4375,-0.1875 0.4375,0 l 2.875,0 0.203125,-1.265625 z m 0,0"
                 style="stroke:none" />
            </symbol>
            <symbol
               id="textext-cff9c579-7"
               overflow="visible"
               style="overflow:visible">
              <path
                 id="path8734"
                 d=""
                 style="stroke:none" />
            </symbol>
            <symbol
               id="textext-cff9c579-8"
               overflow="visible"
               style="overflow:visible">
              <path
                 id="path8737"
                 d="m 5.46875,-2.296875 c 0.15625,0 0.34375,0 0.34375,-0.203125 0,-0.1875 -0.1875,-0.1875 -0.34375,-0.1875 l -4.234375,0 C 1.359375,-4.03125 2.5,-4.984375 3.90625,-4.984375 l 1.5625,0 c 0.15625,0 0.34375,0 0.34375,-0.203125 0,-0.203125 -0.1875,-0.203125 -0.34375,-0.203125 l -1.578125,0 c -1.703125,0 -3.0625,1.296875 -3.0625,2.890625 0,1.609375 1.359375,2.90625 3.0625,2.90625 l 1.578125,0 c 0.15625,0 0.34375,0 0.34375,-0.203125 C 5.8125,0 5.625,0 5.46875,0 L 3.90625,0 C 2.5,0 1.359375,-0.953125 1.234375,-2.296875 l 4.234375,0 z m 0,0"
                 style="stroke:none" />
            </symbol>
            <symbol
               id="textext-cff9c579-9"
               overflow="visible"
               style="overflow:visible">
              <path
                 id="path8740"
                 d="M 3.265625,-7.09375 C 3.3125,-7.203125 3.3125,-7.234375 3.3125,-7.28125 c 0,-0.109375 -0.078125,-0.203125 -0.1875,-0.203125 -0.09375,0 -0.171875,0.0625 -0.234375,0.234375 l -1.75,4.578125 C 1.125,-2.609375 1.09375,-2.546875 1.09375,-2.5 c 0,0.03125 0,0.0625 0.046875,0.171875 L 2.890625,2.25 C 2.9375,2.359375 2.984375,2.5 3.125,2.5 c 0.109375,0 0.1875,-0.09375 0.1875,-0.203125 0,-0.03125 0,-0.046875 -0.046875,-0.15625 L 1.5,-2.5 3.265625,-7.09375 z m 0,0"
                 style="stroke:none" />
            </symbol>
            <symbol
               id="textext-cff9c579-10"
               overflow="visible"
               style="overflow:visible">
              <path
                 id="path8743"
                 d="M 2.71875,-2.328125 C 2.765625,-2.4375 2.765625,-2.46875 2.765625,-2.5 c 0,-0.015625 0,-0.046875 -0.046875,-0.15625 L 0.984375,-7.25 c -0.0625,-0.171875 -0.125,-0.234375 -0.234375,-0.234375 -0.109375,0 -0.203125,0.09375 -0.203125,0.203125 0,0.03125 0,0.046875 0.046875,0.15625 L 2.359375,-2.5 0.59375,2.109375 C 0.546875,2.21875 0.546875,2.25 0.546875,2.296875 0.546875,2.40625 0.640625,2.5 0.75,2.5 0.875,2.5 0.921875,2.390625 0.953125,2.296875 l 1.765625,-4.625 z m 0,0"
                 style="stroke:none" />
            </symbol>
            <symbol
               id="textext-cff9c579-11"
               overflow="visible"
               style="overflow:visible">
              <path
                 id="path8746"
                 d=""
                 style="stroke:none" />
            </symbol>
            <symbol
               id="textext-cff9c579-12"
               overflow="visible"
               style="overflow:visible">
              <path
                 id="path8749"
                 d="m 4.578125,-3.1875 c 0,-0.796875 -0.046875,-1.59375 -0.390625,-2.328125 -0.453125,-0.96875 -1.28125,-1.125 -1.6875,-1.125 -0.609375,0 -1.328125,0.265625 -1.75,1.1875 -0.3125,0.6875 -0.359375,1.46875 -0.359375,2.265625 0,0.75 0.03125,1.640625 0.453125,2.40625 0.421875,0.796875 1.15625,1 1.640625,1 0.53125,0 1.296875,-0.203125 1.734375,-1.15625 0.3125,-0.6875 0.359375,-1.46875 0.359375,-2.25 z M 2.484375,0 C 2.09375,0 1.5,-0.25 1.328125,-1.203125 1.21875,-1.796875 1.21875,-2.71875 1.21875,-3.3125 c 0,-0.640625 0,-1.296875 0.078125,-1.828125 0.1875,-1.1875 0.9375,-1.28125 1.1875,-1.28125 0.328125,0 0.984375,0.1875 1.171875,1.171875 0.109375,0.5625 0.109375,1.3125 0.109375,1.9375 0,0.75 0,1.421875 -0.109375,2.0625 C 3.5,-0.296875 2.9375,0 2.484375,0 z m 0,0"
                 style="stroke:none" />
            </symbol>
            <symbol
               id="textext-cff9c579-13"
               overflow="visible"
               style="overflow:visible">
              <path
                 id="path8752"
                 d="m 2.9375,-6.375 c 0,-0.25 0,-0.265625 -0.234375,-0.265625 C 2.078125,-6 1.203125,-6 0.890625,-6 l 0,0.3125 c 0.203125,0 0.78125,0 1.296875,-0.265625 l 0,5.171875 c 0,0.359375 -0.03125,0.46875 -0.921875,0.46875 l -0.3125,0 0,0.3125 c 0.34375,-0.03125 1.203125,-0.03125 1.609375,-0.03125 0.390625,0 1.265625,0 1.609375,0.03125 l 0,-0.3125 -0.3125,0 c -0.90625,0 -0.921875,-0.109375 -0.921875,-0.46875 l 0,-5.59375 z m 0,0"
                 style="stroke:none" />
            </symbol>
          </g>
        </defs>
        <g
           style="fill:#ff0000"
           id="textext-cff9c579-14">
          <g
             id="g8755"
             style="fill:#ff0000;fill-opacity:1">
            <use
               style="fill:#ff0000"
               id="use8757"
               y="134.765"
               x="223.43201"
               xlink:href="#textext-cff9c579-1"
               width="744.09448"
               height="1052.3622" />
          </g>
          <g
             id="g8759"
             style="fill:#ff0000;fill-opacity:1">
            <use
               style="fill:#ff0000"
               id="use8761"
               y="136.259"
               x="230.565"
               xlink:href="#textext-cff9c579-4"
               width="744.09448"
               height="1052.3622" />
          </g>
          <g
             id="g8763"
             style="fill:#ff0000;fill-opacity:1">
            <use
               style="fill:#ff0000"
               id="use8765"
               y="134.765"
               x="235.034"
               xlink:href="#textext-cff9c579-2"
               width="744.09448"
               height="1052.3622" />
          </g>
          <g
             id="g8767"
             style="fill:#ff0000;fill-opacity:1">
            <use
               style="fill:#ff0000"
               id="use8769"
               y="134.765"
               x="239.46536"
               xlink:href="#textext-cff9c579-1"
               width="744.09448"
               height="1052.3622" />
          </g>
          <g
             id="g8771"
             style="fill:#ff0000;fill-opacity:1">
            <use
               style="fill:#ff0000"
               id="use8773"
               y="136.259"
               x="246.59399"
               xlink:href="#textext-cff9c579-5"
               width="744.09448"
               height="1052.3622" />
          </g>
          <g
             id="g8775"
             style="fill:#ff0000;fill-opacity:1">
            <use
               style="fill:#ff0000"
               id="use8777"
               y="134.765"
               x="251.063"
               xlink:href="#textext-cff9c579-2"
               width="744.09448"
               height="1052.3622" />
          </g>
          <g
             id="g8779"
             style="fill:#ff0000;fill-opacity:1">
            <use
               style="fill:#ff0000"
               id="use8781"
               y="134.765"
               x="255.49437"
               xlink:href="#textext-cff9c579-1"
               width="744.09448"
               height="1052.3622" />
          </g>
          <g
             id="g8783"
             style="fill:#ff0000;fill-opacity:1">
            <use
               style="fill:#ff0000"
               id="use8785"
               y="136.259"
               x="262.62399"
               xlink:href="#textext-cff9c579-6"
               width="744.09448"
               height="1052.3622" />
          </g>
          <g
             id="g8787"
             style="fill:#ff0000;fill-opacity:1">
            <use
               style="fill:#ff0000"
               id="use8789"
               y="134.765"
               x="269.85999"
               xlink:href="#textext-cff9c579-8"
               width="744.09448"
               height="1052.3622" />
          </g>
          <g
             id="g8791"
             style="fill:#ff0000;fill-opacity:1">
            <use
               style="fill:#ff0000"
               id="use8793"
               y="134.765"
               x="279.27167"
               xlink:href="#textext-cff9c579-9"
               width="744.09448"
               height="1052.3622" />
          </g>
          <g
             id="g8795"
             style="fill:#ff0000;fill-opacity:1">
            <use
               style="fill:#ff0000"
               id="use8797"
               y="134.765"
               x="283.14401"
               xlink:href="#textext-cff9c579-12"
               width="744.09448"
               height="1052.3622" />
          </g>
          <g
             id="g8799"
             style="fill:#ff0000;fill-opacity:1">
            <use
               style="fill:#ff0000"
               id="use8801"
               y="134.765"
               x="288.125"
               xlink:href="#textext-cff9c579-2"
               width="744.09448"
               height="1052.3622" />
          </g>
          <g
             id="g8803"
             style="fill:#ff0000;fill-opacity:1">
            <use
               style="fill:#ff0000"
               id="use8805"
               y="134.765"
               x="292.55301"
               xlink:href="#textext-cff9c579-13"
               width="744.09448"
               height="1052.3622" />
          </g>
          <g
             id="g8807"
             style="fill:#ff0000;fill-opacity:1">
            <use
               style="fill:#ff0000"
               id="use8809"
               y="134.765"
               x="297.534"
               xlink:href="#textext-cff9c579-10"
               width="744.09448"
               height="1052.3622" />
          </g>
        </g>
      </g>
      <g
         style="fill:#ff0000"
         transform="matrix(1.5,0,0,1.5,-47.982246,211.62696)"
         ns0:text="$w_0+w_1+w_2=1$"
         ns0:preamble=""
         id="g9177">
        <defs
           id="defs9179">
          <g
             id="g9181">
            <symbol
               style="overflow:visible"
               overflow="visible"
               id="textext-85fac8c9-0">
              <path
                 style="stroke:none"
                 d=""
                 id="path9184" />
            </symbol>
            <symbol
               style="overflow:visible"
               overflow="visible"
               id="textext-85fac8c9-1">
              <path
                 style="stroke:none"
                 d="M 4.609375,-3.375 C 4.65625,-3.59375 4.75,-3.96875 4.75,-4.03125 c 0,-0.171875 -0.140625,-0.265625 -0.28125,-0.265625 -0.125,0 -0.296875,0.078125 -0.375,0.28125 -0.03125,0.0625 -0.5,1.96875 -0.5625,2.234375 C 3.453125,-1.484375 3.4375,-1.3125 3.4375,-1.125 c 0,0.109375 0,0.125 0.015625,0.171875 -0.234375,0.53125 -0.53125,0.84375 -0.921875,0.84375 -0.796875,0 -0.796875,-0.734375 -0.796875,-0.90625 0,-0.3125 0.046875,-0.703125 0.515625,-1.9375 0.109375,-0.296875 0.171875,-0.4375 0.171875,-0.640625 0,-0.4375 -0.328125,-0.8125 -0.8125,-0.8125 -0.953125,0 -1.3125,1.453125 -1.3125,1.53125 0,0.109375 0.09375,0.109375 0.109375,0.109375 0.109375,0 0.109375,-0.03125 0.15625,-0.1875 C 0.84375,-3.875 1.21875,-4.1875 1.578125,-4.1875 c 0.09375,0 0.25,0.015625 0.25,0.328125 0,0.25 -0.109375,0.53125 -0.1875,0.703125 -0.4375,1.171875 -0.546875,1.625 -0.546875,2.015625 0,0.90625 0.65625,1.25 1.40625,1.25 0.171875,0 0.640625,0 1.03125,-0.703125 0.265625,0.640625 0.953125,0.703125 1.25,0.703125 0.75,0 1.1875,-0.625 1.453125,-1.21875 0.328125,-0.78125 0.65625,-2.125 0.65625,-2.59375 0,-0.546875 -0.265625,-0.703125 -0.4375,-0.703125 -0.25,0 -0.5,0.265625 -0.5,0.484375 0,0.125 0.0625,0.1875 0.140625,0.265625 0.109375,0.109375 0.359375,0.359375 0.359375,0.84375 0,0.34375 -0.28125,1.3125 -0.546875,1.828125 -0.25,0.53125 -0.609375,0.875 -1.09375,0.875 -0.46875,0 -0.734375,-0.296875 -0.734375,-0.875 0,-0.265625 0.0625,-0.578125 0.109375,-0.71875 L 4.609375,-3.375 z m 0,0"
                 id="path9187" />
            </symbol>
            <symbol
               style="overflow:visible"
               overflow="visible"
               id="textext-85fac8c9-2">
              <path
                 style="stroke:none"
                 d=""
                 id="path9190" />
            </symbol>
            <symbol
               style="overflow:visible"
               overflow="visible"
               id="textext-85fac8c9-3">
              <path
                 style="stroke:none"
                 d="M 3.59375,-2.21875 C 3.59375,-2.984375 3.5,-3.546875 3.1875,-4.03125 2.96875,-4.34375 2.53125,-4.625 1.984375,-4.625 c -1.625,0 -1.625,1.90625 -1.625,2.40625 0,0.5 0,2.359375 1.625,2.359375 1.609375,0 1.609375,-1.859375 1.609375,-2.359375 z M 1.984375,-0.0625 c -0.328125,0 -0.75,-0.1875 -0.890625,-0.75 C 1,-1.21875 1,-1.796875 1,-2.3125 1,-2.828125 1,-3.359375 1.09375,-3.734375 1.25,-4.28125 1.6875,-4.4375 1.984375,-4.4375 c 0.375,0 0.734375,0.234375 0.859375,0.640625 0.109375,0.375 0.125,0.875 0.125,1.484375 0,0.515625 0,1.03125 -0.09375,1.46875 -0.140625,0.640625 -0.609375,0.78125 -0.890625,0.78125 z m 0,0"
                 id="path9193" />
            </symbol>
            <symbol
               style="overflow:visible"
               overflow="visible"
               id="textext-85fac8c9-4">
              <path
                 style="stroke:none"
                 d="m 2.328125,-4.4375 c 0,-0.1875 0,-0.1875 -0.203125,-0.1875 -0.453125,0.4375 -1.078125,0.4375 -1.359375,0.4375 l 0,0.25 c 0.15625,0 0.625,0 1,-0.1875 l 0,3.546875 c 0,0.234375 0,0.328125 -0.6875,0.328125 l -0.265625,0 0,0.25 c 0.125,0 0.984375,-0.03125 1.234375,-0.03125 0.21875,0 1.09375,0.03125 1.25,0.03125 l 0,-0.25 -0.265625,0 c -0.703125,0 -0.703125,-0.09375 -0.703125,-0.328125 l 0,-3.859375 z m 0,0"
                 id="path9196" />
            </symbol>
            <symbol
               style="overflow:visible"
               overflow="visible"
               id="textext-85fac8c9-5">
              <path
                 style="stroke:none"
                 d="m 3.515625,-1.265625 -0.234375,0 c -0.015625,0.15625 -0.09375,0.5625 -0.1875,0.625 -0.046875,0.046875 -0.578125,0.046875 -0.6875,0.046875 l -1.28125,0 c 0.734375,-0.640625 0.984375,-0.84375 1.390625,-1.171875 0.515625,-0.40625 1,-0.84375 1,-1.5 0,-0.84375 -0.734375,-1.359375 -1.625,-1.359375 -0.859375,0 -1.453125,0.609375 -1.453125,1.25 0,0.34375 0.296875,0.390625 0.375,0.390625 0.15625,0 0.359375,-0.125 0.359375,-0.375 0,-0.125 -0.046875,-0.375 -0.40625,-0.375 C 0.984375,-4.21875 1.453125,-4.375 1.78125,-4.375 c 0.703125,0 1.0625,0.546875 1.0625,1.109375 0,0.609375 -0.4375,1.078125 -0.65625,1.328125 L 0.515625,-0.265625 C 0.4375,-0.203125 0.4375,-0.1875 0.4375,0 l 2.875,0 0.203125,-1.265625 z m 0,0"
                 id="path9199" />
            </symbol>
            <symbol
               style="overflow:visible"
               overflow="visible"
               id="textext-85fac8c9-6">
              <path
                 style="stroke:none"
                 d=""
                 id="path9202" />
            </symbol>
            <symbol
               style="overflow:visible"
               overflow="visible"
               id="textext-85fac8c9-7">
              <path
                 style="stroke:none"
                 d="m 4.078125,-2.296875 2.78125,0 C 7,-2.296875 7.1875,-2.296875 7.1875,-2.5 7.1875,-2.6875 7,-2.6875 6.859375,-2.6875 l -2.78125,0 0,-2.796875 c 0,-0.140625 0,-0.328125 -0.203125,-0.328125 -0.203125,0 -0.203125,0.1875 -0.203125,0.328125 l 0,2.796875 -2.78125,0 c -0.140625,0 -0.328125,0 -0.328125,0.1875 0,0.203125 0.1875,0.203125 0.328125,0.203125 l 2.78125,0 0,2.796875 c 0,0.140625 0,0.328125 0.203125,0.328125 0.203125,0 0.203125,-0.1875 0.203125,-0.328125 l 0,-2.796875 z m 0,0"
                 id="path9205" />
            </symbol>
            <symbol
               style="overflow:visible"
               overflow="visible"
               id="textext-85fac8c9-8">
              <path
                 style="stroke:none"
                 d="m 6.84375,-3.265625 c 0.15625,0 0.34375,0 0.34375,-0.1875 C 7.1875,-3.65625 7,-3.65625 6.859375,-3.65625 l -5.96875,0 c -0.140625,0 -0.328125,0 -0.328125,0.203125 0,0.1875 0.1875,0.1875 0.328125,0.1875 l 5.953125,0 z m 0.015625,1.9375 c 0.140625,0 0.328125,0 0.328125,-0.203125 0,-0.1875 -0.1875,-0.1875 -0.34375,-0.1875 l -5.953125,0 c -0.140625,0 -0.328125,0 -0.328125,0.1875 0,0.203125 0.1875,0.203125 0.328125,0.203125 l 5.96875,0 z m 0,0"
                 id="path9208" />
            </symbol>
            <symbol
               style="overflow:visible"
               overflow="visible"
               id="textext-85fac8c9-9">
              <path
                 style="stroke:none"
                 d="m 2.9375,-6.375 c 0,-0.25 0,-0.265625 -0.234375,-0.265625 C 2.078125,-6 1.203125,-6 0.890625,-6 l 0,0.3125 c 0.203125,0 0.78125,0 1.296875,-0.265625 l 0,5.171875 c 0,0.359375 -0.03125,0.46875 -0.921875,0.46875 l -0.3125,0 0,0.3125 c 0.34375,-0.03125 1.203125,-0.03125 1.609375,-0.03125 0.390625,0 1.265625,0 1.609375,0.03125 l 0,-0.3125 -0.3125,0 c -0.90625,0 -0.921875,-0.109375 -0.921875,-0.46875 l 0,-5.59375 z m 0,0"
                 id="path9211" />
            </symbol>
          </g>
        </defs>
        <g
           style="fill:#ff0000"
           id="textext-85fac8c9-10">
          <g
             style="fill:#ff0000;fill-opacity:1"
             id="g9214">
            <use
               style="fill:#ff0000"
               height="1052.3622"
               width="744.09448"
               xlink:href="#textext-85fac8c9-1"
               x="223.43201"
               y="134.765"
               id="use9216" />
          </g>
          <g
             style="fill:#ff0000;fill-opacity:1"
             id="g9218">
            <use
               style="fill:#ff0000"
               height="1052.3622"
               width="744.09448"
               xlink:href="#textext-85fac8c9-3"
               x="230.565"
               y="136.259"
               id="use9220" />
          </g>
          <g
             style="fill:#ff0000;fill-opacity:1"
             id="g9222">
            <use
               style="fill:#ff0000"
               height="1052.3622"
               width="744.09448"
               xlink:href="#textext-85fac8c9-7"
               x="237.248"
               y="134.765"
               id="use9224" />
          </g>
          <g
             style="fill:#ff0000;fill-opacity:1"
             id="g9226">
            <use
               style="fill:#ff0000"
               height="1052.3622"
               width="744.09448"
               xlink:href="#textext-85fac8c9-1"
               x="247.21001"
               y="134.765"
               id="use9228" />
          </g>
          <g
             style="fill:#ff0000;fill-opacity:1"
             id="g9230">
            <use
               style="fill:#ff0000"
               height="1052.3622"
               width="744.09448"
               xlink:href="#textext-85fac8c9-4"
               x="254.343"
               y="136.259"
               id="use9232" />
          </g>
          <g
             style="fill:#ff0000;fill-opacity:1"
             id="g9234">
            <use
               style="fill:#ff0000"
               height="1052.3622"
               width="744.09448"
               xlink:href="#textext-85fac8c9-7"
               x="261.026"
               y="134.765"
               id="use9236" />
          </g>
          <g
             style="fill:#ff0000;fill-opacity:1"
             id="g9238">
            <use
               style="fill:#ff0000"
               height="1052.3622"
               width="744.09448"
               xlink:href="#textext-85fac8c9-1"
               x="270.98901"
               y="134.765"
               id="use9240" />
          </g>
          <g
             style="fill:#ff0000;fill-opacity:1"
             id="g9242">
            <use
               style="fill:#ff0000"
               height="1052.3622"
               width="744.09448"
               xlink:href="#textext-85fac8c9-5"
               x="278.121"
               y="136.259"
               id="use9244" />
          </g>
          <g
             style="fill:#ff0000;fill-opacity:1"
             id="g9246">
            <use
               style="fill:#ff0000"
               height="1052.3622"
               width="744.09448"
               xlink:href="#textext-85fac8c9-8"
               x="285.358"
               y="134.765"
               id="use9248" />
          </g>
          <g
             style="fill:#ff0000;fill-opacity:1"
             id="g9250">
            <use
               style="fill:#ff0000"
               height="1052.3622"
               width="744.09448"
               xlink:href="#textext-85fac8c9-9"
               x="295.87653"
               y="134.765"
               id="use9252" />
          </g>
        </g>
      </g>
    </g>
  </g>
</svg>
