<?xml version="1.0" encoding="UTF-8" standalone="no"?>
<!-- Created with Inkscape (http://www.inkscape.org/) -->

<svg
   xmlns:dc="http://purl.org/dc/elements/1.1/"
   xmlns:cc="http://creativecommons.org/ns#"
   xmlns:rdf="http://www.w3.org/1999/02/22-rdf-syntax-ns#"
   xmlns:svg="http://www.w3.org/2000/svg"
   xmlns="http://www.w3.org/2000/svg"
   xmlns:sodipodi="http://sodipodi.sourceforge.net/DTD/sodipodi-0.dtd"
   xmlns:inkscape="http://www.inkscape.org/namespaces/inkscape"
   width="82.910316mm"
   height="16.778067mm"
   viewBox="0 0 82.910316 16.778067"
   version="1.1"
   id="svg1135"
   inkscape:version="0.92.3 (2405546, 2018-03-11)"
   sodipodi:docname="gpu_common.svg">
  <defs
     id="defs1129" />
  <sodipodi:namedview
     id="base"
     pagecolor="#ffffff"
     bordercolor="#666666"
     borderopacity="1.0"
     inkscape:pageopacity="0.0"
     inkscape:pageshadow="2"
     inkscape:zoom="1.979899"
     inkscape:cx="150.85927"
     inkscape:cy="-5.7294226"
     inkscape:document-units="mm"
     inkscape:current-layer="layer1"
     showgrid="false"
     fit-margin-top="0"
     fit-margin-left="0"
     fit-margin-right="0"
     fit-margin-bottom="0"
     inkscape:window-width="1919"
     inkscape:window-height="1080"
     inkscape:window-x="1"
     inkscape:window-y="-26"
     inkscape:window-maximized="1" />
  <metadata
     id="metadata1132">
    <rdf:RDF>
      <cc:Work
         rdf:about="">
        <dc:format>image/svg+xml</dc:format>
        <dc:type
           rdf:resource="http://purl.org/dc/dcmitype/StillImage" />
        <dc:title />
      </cc:Work>
    </rdf:RDF>
  </metadata>
  <g
     inkscape:label="Layer 1"
     inkscape:groupmode="layer"
     id="layer1"
     transform="translate(-51.526985,-61.0693)">
    <g
       id="g4848">
      <g
         id="g881"
         transform="matrix(0.35277777,0,0,0.35277777,51.526787,61.067514)">
        <path
           d="m 3.195,1.93 h 83.77 c 1.59,0 2.867,1.39 2.867,3.117 v 37.476 c 0,1.727 -1.277,3.118 -2.867,3.118 H 3.195 c -1.59,0 -2.867,-1.391 -2.867,-3.118 V 5.047 C 0.328,3.32 1.605,1.93 3.195,1.93 Z"
           style="fill:#b3b3b3;fill-opacity:1;fill-rule:nonzero;stroke:#000000;stroke-width:0.65487999;stroke-linecap:butt;stroke-linejoin:round;stroke-miterlimit:4;stroke-dasharray:none;stroke-opacity:1"
           id="path883"
           inkscape:connector-curvature="0" />
      </g>
      <g
         id="g885"
         transform="matrix(0.35277777,0,0,0.35277777,51.526787,61.067514)">
        <path
           d="m 59.801,21.027 h 25.715 c 0.062,0 0.113,0.051 0.113,0.114 v 17.55 c 0,0.063 -0.051,0.114 -0.113,0.114 H 59.801 c -0.063,0 -0.113,-0.051 -0.113,-0.114 v -17.55 c 0,-0.063 0.05,-0.114 0.113,-0.114 z"
           style="fill:#ff6600;fill-opacity:1;fill-rule:nonzero;stroke:#000000;stroke-width:0.80000001;stroke-linecap:butt;stroke-linejoin:round;stroke-miterlimit:4;stroke-dasharray:none;stroke-opacity:1"
           id="path887"
           inkscape:connector-curvature="0" />
      </g>
      <text
         y="72.631554"
         x="74.220871"
         style="font-variant:normal;font-weight:normal;font-size:2.82222199px;font-family:Arial;-inkscape-font-specification:ArialMT;writing-mode:lr-tb;fill:#000000;fill-opacity:1;fill-rule:nonzero;stroke:none;stroke-width:0.35277775"
         id="text891">
        <tspan
           y="72.631554"
           x="74.220871"
           sodipodi:role="line"
           id="tspan889"
           style="stroke-width:0.35277775">CPU</tspan>
      </text>
      <g
         id="g893"
         transform="matrix(0.35277777,0,0,0.35277777,51.526787,61.067514)">
        <path
           d="m 4.176,18.492 h 30.777 c 0.059,0 0.109,0.051 0.109,0.113 v 20.633 c 0,0.063 -0.05,0.114 -0.109,0.114 H 4.176 c -0.063,0 -0.114,-0.051 -0.114,-0.114 V 18.605 c 0,-0.062 0.051,-0.113 0.114,-0.113 z"
           style="fill:#008080;fill-opacity:1;fill-rule:nonzero;stroke:#000000;stroke-width:0.80000001;stroke-linecap:butt;stroke-linejoin:round;stroke-miterlimit:4;stroke-dasharray:none;stroke-opacity:1"
           id="path895"
           inkscape:connector-curvature="0" />
      </g>
      <path
         d="M 54.486945,72.280555 V 70.26055 h 0.695678 c 0.157339,0 0.27693,0.0095 0.359833,0.02893 0.115711,0.02611 0.213431,0.07444 0.296333,0.144639 0.105834,0.08961 0.185914,0.205317 0.238125,0.345722 0.05256,0.139347 0.08008,0.299155 0.08008,0.479777 0,0.152753 -0.01799,0.289278 -0.05362,0.407812 -0.03598,0.118533 -0.0829,0.216252 -0.137936,0.294922 -0.05644,0.07726 -0.118533,0.137583 -0.184502,0.183091 -0.06632,0.0441 -0.147462,0.07726 -0.2413,0.100542 -0.09384,0.02363 -0.202495,0.03457 -0.32385,0.03457 h -0.728839 m 0.267052,-0.238477 h 0.431448 c 0.132291,0 0.237066,-0.01235 0.312914,-0.03704 0.07585,-0.02469 0.136525,-0.05927 0.18168,-0.104775 0.0635,-0.0635 0.111831,-0.148872 0.147461,-0.255058 0.03598,-0.107245 0.05398,-0.237067 0.05398,-0.38982 0,-0.210961 -0.03598,-0.373591 -0.104775,-0.48648 -0.06879,-0.1143 -0.153106,-0.190147 -0.252237,-0.2286 -0.07161,-0.02787 -0.187325,-0.04163 -0.345722,-0.04163 h -0.424744 v 1.543403"
         style="fill:#000000;fill-opacity:1;fill-rule:nonzero;stroke:none;stroke-width:0.35277775"
         id="path897"
         inkscape:connector-curvature="0" />
      <path
         d="M 56.530587,72.280555 V 70.26055 h 0.895702 c 0.178859,0 0.316795,0.01764 0.410634,0.05503 0.09349,0.03563 0.167922,0.09913 0.224366,0.191558 0.05539,0.09243 0.08431,0.19297 0.08431,0.304448 0,0.143227 -0.04692,0.264583 -0.139347,0.362302 -0.09349,0.09807 -0.237067,0.16122 -0.430036,0.187678 0.07055,0.03422 0.124178,0.06738 0.161219,0.100542 0.07726,0.07161 0.151695,0.161219 0.221898,0.268817 l 0.351366,0.549627 h -0.336197 l -0.267053,-0.420158 c -0.07867,-0.121356 -0.14358,-0.213783 -0.192969,-0.278342 -0.05115,-0.06491 -0.09666,-0.109008 -0.136525,-0.135114 -0.03986,-0.02611 -0.08008,-0.0441 -0.121356,-0.05362 -0.03034,-0.0071 -0.07973,-0.0099 -0.148872,-0.0099 h -0.310092 v 0.897114 h -0.267052 m 0.267052,-1.128515 h 0.574675 c 0.121356,0 0.218017,-0.01235 0.286809,-0.03739 0.06879,-0.02611 0.121355,-0.06597 0.156986,-0.121002 0.03598,-0.05644 0.05362,-0.117123 0.05362,-0.182034 0,-0.0949 -0.03563,-0.173566 -0.104423,-0.235655 -0.06914,-0.06209 -0.17921,-0.09243 -0.328083,-0.09243 h -0.639586 v 0.668513"
         style="fill:#000000;fill-opacity:1;fill-rule:nonzero;stroke:none;stroke-width:0.35277775"
         id="path899"
         inkscape:connector-curvature="0" />
      <path
         d="m 58.343864,72.280555 0.775759,-2.020005 h 0.288219 l 0.826911,2.020005 h -0.3048 l -0.235655,-0.611716 h -0.84455 l -0.221898,0.611716 h -0.283986 m 0.583142,-0.82938 h 0.684742 L 59.400787,70.89167 c -0.06456,-0.169686 -0.112889,-0.310092 -0.143228,-0.4191 -0.02611,0.129469 -0.06209,0.25788 -0.109009,0.385939 l -0.221544,0.592666"
         style="fill:#000000;fill-opacity:1;fill-rule:nonzero;stroke:none;stroke-width:0.35277775"
         id="path901"
         inkscape:connector-curvature="0" />
      <path
         d="M 60.442539,72.280555 V 70.26055 h 0.40252 l 0.478366,1.430161 c 0.0441,0.133703 0.07549,0.232833 0.09631,0.299155 0.02187,-0.07303 0.05786,-0.182033 0.107598,-0.32385 l 0.483658,-1.405466 h 0.35948 v 2.020005 h -0.257527 v -1.690863 l -0.587022,1.690863 h -0.2413 l -0.5842,-1.719791 v 1.719791 h -0.257881"
         style="fill:#000000;fill-opacity:1;fill-rule:nonzero;stroke:none;stroke-width:0.35277775"
         id="path903"
         inkscape:connector-curvature="0" />
      <g
         id="g905"
         transform="matrix(0.35277777,0,0,0.35277777,51.526787,61.067514)">
        <path
           d="m 38.777,29.73 h 17"
           style="fill:none;stroke:#000000;stroke-width:0.95220703;stroke-linecap:butt;stroke-linejoin:miter;stroke-miterlimit:4;stroke-dasharray:none;stroke-opacity:1"
           id="path907"
           inkscape:connector-curvature="0" />
      </g>
      <g
         id="g909"
         transform="matrix(0.35277777,0,0,0.35277777,51.526787,61.067514)">
        <path
           d="m 42.586,29.73 1.906,-1.906 -6.668,1.906 6.668,1.903 z"
           style="fill:#000000;fill-opacity:1;fill-rule:evenodd;stroke:#000000;stroke-width:0.47610399;stroke-linecap:butt;stroke-linejoin:miter;stroke-miterlimit:4;stroke-dasharray:none;stroke-opacity:1"
           id="path911"
           inkscape:connector-curvature="0" />
      </g>
      <g
         id="g913"
         transform="matrix(-0.35277777,0,0,-0.35277777,51.526787,61.067514)">
        <path
           d="m -51.969,-29.73 1.903,-1.903 -6.664,1.903 6.664,1.906 z"
           style="fill:#000000;fill-opacity:1;fill-rule:evenodd;stroke:#000000;stroke-width:0.47610399;stroke-linecap:butt;stroke-linejoin:miter;stroke-miterlimit:4;stroke-dasharray:none;stroke-opacity:1"
           id="path915"
           inkscape:connector-curvature="0" />
      </g>
      <text
         y="65.843559"
         x="54.154671"
         style="font-variant:normal;font-weight:normal;font-size:2.82222199px;font-family:Arial;-inkscape-font-specification:ArialMT;writing-mode:lr-tb;fill:#000000;fill-opacity:1;fill-rule:nonzero;stroke:none;stroke-width:0.35277775"
         id="text919">
        <tspan
           y="65.843559"
           x="54.154671"
           sodipodi:role="line"
           id="tspan917"
           style="stroke-width:0.35277775">host (CPU)</tspan>
      </text>
      <g
         id="g921"
         transform="matrix(0.35277777,0,0,0.35277777,51.526787,61.067514)">
        <path
           d="m 133.648,0.371 h 97.664 c 1.852,0 3.344,1.488 3.344,3.34 v 40.148 c 0,1.848 -1.492,3.34 -3.344,3.34 h -97.664 c -1.847,0 -3.339,-1.492 -3.339,-3.34 V 3.711 c 0,-1.852 1.492,-3.34 3.339,-3.34 z"
           style="fill:#b3b3b3;fill-opacity:1;fill-rule:nonzero;stroke:#000000;stroke-width:0.73187298;stroke-linecap:butt;stroke-linejoin:round;stroke-miterlimit:4;stroke-dasharray:none;stroke-opacity:1"
           id="path923"
           inkscape:connector-curvature="0" />
      </g>
      <g
         id="g925"
         transform="matrix(0.35277777,0,0,0.35277777,51.526787,61.067514)">
        <path
           d="m 205.328,13.191 h 25.719 c 0.062,0 0.109,0.051 0.109,0.11 v 17.554 c 0,0.059 -0.047,0.11 -0.109,0.11 h -25.719 c -0.058,0 -0.109,-0.051 -0.109,-0.11 V 13.301 c 0,-0.059 0.047,-0.11 0.109,-0.11 z"
           style="fill:#ff6600;fill-opacity:1;fill-rule:nonzero;stroke:#000000;stroke-width:0.80000001;stroke-linecap:butt;stroke-linejoin:round;stroke-miterlimit:4;stroke-dasharray:none;stroke-opacity:1"
           id="path927"
           inkscape:connector-curvature="0" />
      </g>
      <path
         d="m 126.55133,69.217386 0.25223,-0.02223 c 0.0109,0.100542 0.0384,0.184503 0.0825,0.249414 0.0441,0.06491 0.11184,0.117122 0.20391,0.156986 0.091,0.04022 0.19438,0.05927 0.31009,0.05927 0.10195,0 0.19156,-0.01517 0.27023,-0.04551 0.0773,-0.02999 0.13511,-0.07161 0.17357,-0.123825 0.0385,-0.05362 0.0579,-0.11183 0.0579,-0.173566 0,-0.0635 -0.0194,-0.118534 -0.055,-0.165453 -0.0374,-0.04833 -0.0981,-0.08819 -0.18204,-0.119944 -0.055,-0.02046 -0.17497,-0.05362 -0.35948,-0.09772 -0.18626,-0.04551 -0.31573,-0.08678 -0.39017,-0.127 -0.0963,-0.0508 -0.16933,-0.112889 -0.21625,-0.187325 -0.0469,-0.07585 -0.0702,-0.159809 -0.0702,-0.252236 0,-0.101953 0.0289,-0.19685 0.0868,-0.285045 0.0579,-0.08961 0.14181,-0.157339 0.25364,-0.202847 0.11007,-0.04516 0.23425,-0.06879 0.37042,-0.06879 0.14887,0 0.28116,0.02469 0.39546,0.07303 0.11466,0.04833 0.20285,0.118533 0.26459,0.212372 0.0607,0.09349 0.0938,0.199672 0.0995,0.318205 l -0.25647,0.0194 c -0.0138,-0.128059 -0.0607,-0.22472 -0.14041,-0.289631 -0.0801,-0.06456 -0.1972,-0.09772 -0.35137,-0.09772 -0.16263,0 -0.27975,0.03034 -0.35418,0.08961 -0.0744,0.05927 -0.11043,0.12947 -0.11043,0.213784 0,0.07303 0.0261,0.132291 0.0787,0.178858 0.0508,0.04692 0.18451,0.09525 0.40217,0.144639 0.21802,0.04833 0.36689,0.09102 0.44803,0.128411 0.11712,0.05362 0.2039,0.122414 0.26035,0.206728 0.0554,0.08255 0.0843,0.1778 0.0843,0.286455 0,0.107598 -0.0317,0.20955 -0.0924,0.304448 -0.0621,0.09525 -0.15029,0.168274 -0.266,0.221897 -0.11571,0.05256 -0.24518,0.07867 -0.38876,0.07867 -0.18309,0 -0.33619,-0.02611 -0.46002,-0.08008 -0.12418,-0.05362 -0.22048,-0.13335 -0.29104,-0.239536 -0.0702,-0.107598 -0.10724,-0.228953 -0.11007,-0.363714"
         style="fill:#000000;fill-opacity:1;fill-rule:nonzero;stroke:none;stroke-width:0.35277775"
         id="path929"
         inkscape:connector-curvature="0" />
      <path
         d="m 128.51912,69.866145 v -2.020006 h 0.40252 l 0.47802,1.430514 c 0.0441,0.13335 0.0759,0.232833 0.0967,0.298803 0.0219,-0.07303 0.0579,-0.181681 0.10724,-0.32385 l 0.48366,-1.405467 h 0.35983 v 2.020006 h -0.25788 v -1.690864 l -0.58702,1.690864 h -0.24095 l -0.5842,-1.719792 v 1.719792 h -0.25788"
         style="fill:#000000;fill-opacity:1;fill-rule:nonzero;stroke:none;stroke-width:0.35277775"
         id="path931"
         inkscape:connector-curvature="0" />
      <g
         id="g933"
         transform="matrix(0.35277777,0,0,0.35277777,51.526787,61.067514)">
        <path
           d="m 199.945,17.535 h 25.715 c 0.063,0 0.113,0.051 0.113,0.113 v 17.551 c 0,0.063 -0.05,0.11 -0.113,0.11 h -25.715 c -0.062,0 -0.113,-0.047 -0.113,-0.11 V 17.648 c 0,-0.062 0.051,-0.113 0.113,-0.113 z"
           style="fill:#ff6600;fill-opacity:1;fill-rule:nonzero;stroke:#000000;stroke-width:0.80000001;stroke-linecap:butt;stroke-linejoin:round;stroke-miterlimit:4;stroke-dasharray:none;stroke-opacity:1"
           id="path935"
           inkscape:connector-curvature="0" />
      </g>
      <path
         d="m 124.65091,70.7495 0.25224,-0.02187 c 0.0124,0.101953 0.0399,0.184503 0.0825,0.249414 0.0441,0.06456 0.11183,0.117122 0.20426,0.156986 0.0921,0.03986 0.19544,0.05927 0.31009,0.05927 0.10195,0 0.19121,-0.01517 0.26988,-0.04551 0.0787,-0.03034 0.13652,-0.07161 0.17356,-0.123825 0.0388,-0.05256 0.0579,-0.110419 0.0579,-0.173919 0,-0.06315 -0.0177,-0.118181 -0.055,-0.1651 -0.037,-0.04692 -0.0977,-0.08678 -0.18167,-0.119944 -0.054,-0.02081 -0.17393,-0.05362 -0.35984,-0.09772 -0.18591,-0.0441 -0.31574,-0.08714 -0.39017,-0.127 -0.0963,-0.04939 -0.16792,-0.112889 -0.21625,-0.187325 -0.0469,-0.07444 -0.0702,-0.158398 -0.0702,-0.252237 0,-0.101952 0.0289,-0.197202 0.0868,-0.285397 0.0579,-0.08819 0.14181,-0.155575 0.25365,-0.202494 0.11147,-0.04551 0.23424,-0.06879 0.37076,-0.06879 0.14994,0 0.28082,0.02469 0.39547,0.07303 0.1143,0.04833 0.20249,0.118533 0.26458,0.212372 0.0617,0.09349 0.0949,0.199672 0.0991,0.318206 l -0.25647,0.0194 c -0.0138,-0.127 -0.0603,-0.223309 -0.1404,-0.289631 -0.0787,-0.06456 -0.19579,-0.09772 -0.35137,-0.09772 -0.16122,0 -0.27975,0.03034 -0.35419,0.08961 -0.073,0.05927 -0.11042,0.130881 -0.11042,0.213431 0,0.07303 0.0265,0.132291 0.0787,0.179211 0.0512,0.04692 0.18592,0.09525 0.40252,0.144639 0.21767,0.04974 0.36654,0.09243 0.44768,0.128411 0.11712,0.05503 0.2039,0.123825 0.2607,0.206375 0.0564,0.0829 0.084,0.179211 0.084,0.286808 0,0.107597 -0.0303,0.20955 -0.0924,0.304447 -0.0621,0.09525 -0.15028,0.169686 -0.266,0.221897 -0.1143,0.05256 -0.24376,0.07867 -0.3884,0.07867 -0.18345,0 -0.3362,-0.02611 -0.46038,-0.08008 -0.12276,-0.05221 -0.22048,-0.132295 -0.29068,-0.239539 -0.0702,-0.107597 -0.10619,-0.228953 -0.11043,-0.364067"
         style="fill:#000000;fill-opacity:1;fill-rule:nonzero;stroke:none;stroke-width:0.35277775"
         id="path937"
         inkscape:connector-curvature="0" />
      <path
         d="m 126.61871,71.398611 v -2.020005 h 0.40252 l 0.47801,1.430161 c 0.0441,0.133703 0.0759,0.232833 0.0967,0.299155 0.0233,-0.07303 0.0593,-0.180622 0.1076,-0.32385 l 0.48366,-1.405466 h 0.35948 v 2.020005 h -0.25753 v -1.690864 l -0.58702,1.690864 h -0.2413 l -0.5842,-1.719791 v 1.719791 h -0.25788"
         style="fill:#000000;fill-opacity:1;fill-rule:nonzero;stroke:none;stroke-width:0.35277775"
         id="path939"
         inkscape:connector-curvature="0" />
      <g
         id="g941"
         transform="matrix(0.35277777,0,0,0.35277777,51.526787,61.067514)">
        <path
           d="m 194.559,21.879 h 25.718 c 0.059,0 0.11,0.051 0.11,0.113 v 17.551 c 0,0.062 -0.051,0.113 -0.11,0.113 h -25.718 c -0.063,0 -0.11,-0.051 -0.11,-0.113 V 21.992 c 0,-0.062 0.047,-0.113 0.11,-0.113 z"
           style="fill:#ff6600;fill-opacity:1;fill-rule:nonzero;stroke:#000000;stroke-width:0.80000001;stroke-linecap:butt;stroke-linejoin:round;stroke-miterlimit:4;stroke-dasharray:none;stroke-opacity:1"
           id="path943"
           inkscape:connector-curvature="0" />
      </g>
      <path
         d="m 122.75085,72.281966 0.25189,-0.02187 c 0.0127,0.101953 0.0402,0.184503 0.0829,0.249414 0.0441,0.06456 0.11289,0.117122 0.2039,0.156986 0.0924,0.03986 0.1958,0.05927 0.3101,0.05927 0.10195,0 0.19296,-0.01517 0.26987,-0.04551 0.0787,-0.03034 0.13653,-0.07161 0.17392,-0.124178 0.0384,-0.05221 0.0579,-0.110067 0.0579,-0.173567 0,-0.06315 -0.018,-0.118533 -0.0554,-0.165453 -0.0356,-0.04657 -0.0963,-0.08678 -0.18168,-0.119591 -0.054,-0.02081 -0.17357,-0.05397 -0.35984,-0.09807 -0.1845,-0.0441 -0.31538,-0.08678 -0.38981,-0.126647 -0.0967,-0.04974 -0.16828,-0.112889 -0.21661,-0.187325 -0.0466,-0.07444 -0.0702,-0.15875 -0.0702,-0.252236 0,-0.101953 0.0289,-0.197203 0.0868,-0.285397 0.0579,-0.08819 0.14358,-0.155575 0.25364,-0.202494 0.11184,-0.04551 0.23566,-0.06879 0.37078,-0.06879 0.15028,0 0.28257,0.02469 0.39546,0.07302 0.11571,0.04798 0.2039,0.118533 0.26458,0.212019 0.0621,0.09384 0.0953,0.200025 0.0991,0.318559 l -0.25611,0.01905 c -0.0138,-0.126648 -0.0607,-0.223309 -0.14076,-0.289278 -0.0783,-0.06491 -0.19544,-0.09772 -0.35137,-0.09772 -0.16122,0 -0.27975,0.03034 -0.35419,0.08961 -0.073,0.05927 -0.11007,0.13088 -0.11007,0.21343 0,0.07302 0.0261,0.132292 0.0783,0.179212 0.0526,0.04692 0.18627,0.0949 0.40252,0.144638 0.21767,0.04974 0.36795,0.09243 0.44803,0.128059 0.11818,0.05539 0.20532,0.124178 0.26035,0.206728 0.0564,0.0829 0.084,0.179211 0.084,0.286808 0,0.107244 -0.0303,0.209197 -0.0924,0.304447 -0.0603,0.09525 -0.14993,0.169333 -0.26564,0.221897 -0.11465,0.05221 -0.24412,0.07867 -0.38876,0.07867 -0.18203,0 -0.3362,-0.02646 -0.46037,-0.08008 -0.12242,-0.05221 -0.21908,-0.132291 -0.29069,-0.239889 -0.0688,-0.107244 -0.10619,-0.2286 -0.11007,-0.363714"
         style="fill:#000000;fill-opacity:1;fill-rule:nonzero;stroke:none;stroke-width:0.35277775"
         id="path945"
         inkscape:connector-curvature="0" />
      <path
         d="M 124.71865,72.931078 V 70.91072 h 0.40216 l 0.47837,1.430513 c 0.0441,0.133703 0.0773,0.232833 0.0963,0.299156 0.0236,-0.07303 0.0593,-0.180623 0.1076,-0.32385 l 0.48366,-1.405819 h 0.35983 v 2.020358 h -0.25788 v -1.690864 l -0.58702,1.690864 h -0.2413 l -0.5842,-1.719792 v 1.719792 h -0.25753"
         style="fill:#000000;fill-opacity:1;fill-rule:nonzero;stroke:none;stroke-width:0.35277775"
         id="path947"
         inkscape:connector-curvature="0" />
      <g
         id="g949"
         transform="matrix(0.35277777,0,0,0.35277777,51.526787,61.067514)">
        <path
           d="m 189.176,26.223 h 25.715 c 0.062,0 0.113,0.05 0.113,0.113 v 17.551 c 0,0.062 -0.051,0.113 -0.113,0.113 h -25.715 c -0.063,0 -0.114,-0.051 -0.114,-0.113 V 26.336 c 0,-0.063 0.051,-0.113 0.114,-0.113 z"
           style="fill:#ff6600;fill-opacity:1;fill-rule:nonzero;stroke:#000000;stroke-width:0.80000001;stroke-linecap:butt;stroke-linejoin:round;stroke-miterlimit:4;stroke-dasharray:none;stroke-opacity:1"
           id="path951"
           inkscape:connector-curvature="0" />
      </g>
      <path
         d="m 120.85185,73.815844 0.25224,-0.02223 c 0.0109,0.100542 0.0384,0.183445 0.0825,0.249414 0.0441,0.0635 0.11147,0.115711 0.2039,0.157339 0.091,0.03845 0.19438,0.05927 0.3101,0.05927 0.10195,0 0.19155,-0.01517 0.27022,-0.04551 0.0769,-0.03034 0.13476,-0.07197 0.17357,-0.124177 0.0384,-0.05362 0.0579,-0.111478 0.0579,-0.173567 0,-0.0635 -0.0194,-0.118533 -0.055,-0.165453 -0.0374,-0.04833 -0.0981,-0.08819 -0.18203,-0.119944 -0.055,-0.02187 -0.17498,-0.05362 -0.35984,-0.09772 -0.18591,-0.04551 -0.31538,-0.08819 -0.38982,-0.126647 -0.0963,-0.05115 -0.16968,-0.113242 -0.21625,-0.187678 -0.0469,-0.07585 -0.0706,-0.159808 -0.0706,-0.252236 0,-0.101953 0.0289,-0.19685 0.0871,-0.285044 0.0579,-0.08961 0.14182,-0.156986 0.25329,-0.202495 0.11042,-0.04692 0.23425,-0.06914 0.37077,-0.06914 0.14887,0 0.28117,0.02363 0.39547,0.07302 0.1143,0.04692 0.20249,0.118533 0.26458,0.212372 0.0607,0.09384 0.0938,0.199672 0.0991,0.318206 l -0.25612,0.0194 c -0.0138,-0.128059 -0.0607,-0.22472 -0.14076,-0.289278 -0.0797,-0.06632 -0.19685,-0.09807 -0.35136,-0.09807 -0.16263,0 -0.27976,0.02893 -0.35419,0.0896 -0.0744,0.05786 -0.11007,0.12947 -0.11007,0.213784 0,0.07161 0.0261,0.132291 0.0787,0.178858 0.0508,0.04692 0.18451,0.09525 0.40217,0.144991 0.21766,0.04798 0.36654,0.09066 0.44803,0.128059 0.11712,0.05362 0.2039,0.122766 0.26035,0.206728 0.055,0.08255 0.084,0.1778 0.084,0.286455 0,0.107597 -0.0317,0.208139 -0.0921,0.3048 -0.0621,0.09349 -0.15029,0.167922 -0.266,0.221897 -0.11571,0.05221 -0.24553,0.07832 -0.38876,0.07832 -0.18309,0 -0.33619,-0.02752 -0.46037,-0.07973 -0.12383,-0.05398 -0.22049,-0.133703 -0.29069,-0.239889 -0.0702,-0.107597 -0.10725,-0.2286 -0.11007,-0.363714"
         style="fill:#000000;fill-opacity:1;fill-rule:nonzero;stroke:none;stroke-width:0.35277775"
         id="path953"
         inkscape:connector-curvature="0" />
      <path
         d="m 122.81965,74.464955 v -2.020358 h 0.40216 l 0.47837,1.430514 c 0.0441,0.132292 0.0759,0.232833 0.0963,0.298803 0.0222,-0.07444 0.0579,-0.181681 0.1076,-0.32385 l 0.48366,-1.405467 h 0.35983 v 2.020358 h -0.25788 v -1.690864 l -0.58702,1.690864 h -0.24095 l -0.58455,-1.719791 v 1.719791 h -0.25753"
         style="fill:#000000;fill-opacity:1;fill-rule:nonzero;stroke:none;stroke-width:0.35277775"
         id="path955"
         inkscape:connector-curvature="0" />
      <g
         id="g957"
         transform="matrix(0.35277777,0,0,0.35277777,51.526787,61.067514)">
        <path
           d="m 134.359,17.223 h 30.774 c 0.062,0 0.113,0.05 0.113,0.113 v 20.633 c 0,0.062 -0.051,0.113 -0.113,0.113 h -30.774 c -0.062,0 -0.113,-0.051 -0.113,-0.113 V 17.336 c 0,-0.063 0.051,-0.113 0.113,-0.113 z"
           style="fill:#008080;fill-opacity:1;fill-rule:nonzero;stroke:#000000;stroke-width:0.80000001;stroke-linecap:butt;stroke-linejoin:round;stroke-miterlimit:4;stroke-dasharray:none;stroke-opacity:1"
           id="path959"
           inkscape:connector-curvature="0" />
      </g>
      <path
         d="m 100.4112,71.83288 v -2.020358 h 0.69603 c 0.15699,0 0.27693,0.0095 0.35948,0.02893 0.11607,0.02611 0.2152,0.07444 0.29634,0.144639 0.10759,0.08961 0.18626,0.205317 0.23848,0.346075 0.0536,0.138995 0.0801,0.298803 0.0801,0.479425 0,0.153106 -0.018,0.289277 -0.054,0.407811 -0.0356,0.118533 -0.0811,0.216605 -0.13759,0.294922 -0.0554,0.07726 -0.11712,0.137936 -0.18485,0.183444 -0.066,0.0441 -0.14605,0.07726 -0.24095,0.100542 -0.0938,0.02328 -0.20143,0.03457 -0.32385,0.03457 h -0.72919 m 0.26741,-0.238477 h 0.43144 c 0.13371,0 0.23848,-0.01235 0.31292,-0.0374 0.0769,-0.02469 0.13758,-0.05927 0.18168,-0.104775 0.0635,-0.06315 0.11288,-0.148519 0.14746,-0.254705 0.036,-0.107598 0.0536,-0.237066 0.0536,-0.390172 0,-0.210608 -0.0342,-0.373239 -0.10443,-0.486481 -0.0691,-0.1143 -0.1531,-0.190147 -0.25223,-0.2286 -0.0716,-0.02752 -0.18627,-0.04127 -0.34608,-0.04127 h -0.42439 v 1.543403"
         style="fill:#000000;fill-opacity:1;fill-rule:nonzero;stroke:none;stroke-width:0.35277775"
         id="path961"
         inkscape:connector-curvature="0" />
      <path
         d="m 102.45484,71.83288 v -2.020358 h 0.89571 c 0.18062,0 0.31714,0.01799 0.41063,0.05503 0.0938,0.03598 0.16969,0.09948 0.22472,0.191559 0.0564,0.09243 0.084,0.192969 0.084,0.3048 0,0.143227 -0.0455,0.264583 -0.13899,0.362302 -0.0924,0.09772 -0.23566,0.16122 -0.43004,0.187325 0.0716,0.03457 0.12559,0.06773 0.16122,0.100542 0.0787,0.07161 0.1531,0.16122 0.2219,0.268817 l 0.35136,0.54998 h -0.33619 l -0.26741,-0.420511 c -0.0773,-0.121355 -0.14182,-0.21343 -0.19297,-0.278341 -0.0494,-0.06456 -0.0949,-0.108656 -0.13617,-0.135114 -0.0388,-0.02611 -0.0801,-0.0441 -0.12136,-0.05362 -0.0303,-0.0071 -0.0801,-0.0095 -0.14887,-0.0095 h -0.31009 v 0.897118 h -0.26741 m 0.26741,-1.128888 h 0.57468 c 0.12276,0 0.21766,-0.01235 0.28645,-0.03704 0.0691,-0.02611 0.12136,-0.06632 0.15734,-0.121356 0.0356,-0.05644 0.0536,-0.117122 0.0536,-0.18168 0,-0.09525 -0.0346,-0.17392 -0.10478,-0.235656 -0.0688,-0.06209 -0.1778,-0.09243 -0.32773,-0.09243 h -0.63958 v 0.668161"
         style="fill:#000000;fill-opacity:1;fill-rule:nonzero;stroke:none;stroke-width:0.35277775"
         id="path963"
         inkscape:connector-curvature="0" />
      <path
         d="m 104.26848,71.83288 0.77575,-2.020358 h 0.28822 l 0.82656,2.020358 h -0.30445 l -0.23565,-0.612069 h -0.84455 l -0.2219,0.612069 h -0.28398 m 0.58278,-0.829733 h 0.6851 l -0.21096,-0.559505 c -0.0635,-0.169333 -0.11148,-0.310092 -0.14323,-0.418747 -0.0251,0.129469 -0.0621,0.257527 -0.10901,0.385586 l -0.2219,0.592666"
         style="fill:#000000;fill-opacity:1;fill-rule:nonzero;stroke:none;stroke-width:0.35277775"
         id="path965"
         inkscape:connector-curvature="0" />
      <path
         d="m 106.36715,71.83288 v -2.020358 h 0.40252 l 0.47801,1.430514 c 0.0441,0.133703 0.0773,0.232833 0.0967,0.298803 0.0233,-0.07302 0.0593,-0.181681 0.10724,-0.32385 l 0.48366,-1.405467 h 0.35984 v 2.020358 h -0.25753 v -1.690863 l -0.58737,1.690863 h -0.24095 l -0.5842,-1.719791 v 1.719791 h -0.25788"
         style="fill:#000000;fill-opacity:1;fill-rule:nonzero;stroke:none;stroke-width:0.35277775"
         id="path967"
         inkscape:connector-curvature="0" />
      <g
         id="g969"
         transform="matrix(0.35277777,0,0,0.35277777,51.526787,61.067514)">
        <path
           d="m 168.961,27.652 h 17"
           style="fill:none;stroke:#000000;stroke-width:0.95220703;stroke-linecap:butt;stroke-linejoin:miter;stroke-miterlimit:4;stroke-dasharray:none;stroke-opacity:1"
           id="path971"
           inkscape:connector-curvature="0" />
      </g>
      <g
         id="g973"
         transform="matrix(0.35277777,0,0,0.35277777,51.526787,61.067514)">
        <path
           d="m 172.77,27.652 1.902,-1.906 -6.664,1.906 6.664,1.903 z"
           style="fill:#000000;fill-opacity:1;fill-rule:evenodd;stroke:#000000;stroke-width:0.47610399;stroke-linecap:butt;stroke-linejoin:miter;stroke-miterlimit:4;stroke-dasharray:none;stroke-opacity:1"
           id="path975"
           inkscape:connector-curvature="0" />
      </g>
      <g
         id="g977"
         transform="matrix(-0.35277777,0,0,-0.35277777,51.526787,61.067514)">
        <path
           d="m -182.152,-27.652 1.906,-1.903 -6.668,1.903 6.668,1.906 z"
           style="fill:#000000;fill-opacity:1;fill-rule:evenodd;stroke:#000000;stroke-width:0.47610399;stroke-linecap:butt;stroke-linejoin:miter;stroke-miterlimit:4;stroke-dasharray:none;stroke-opacity:1"
           id="path979"
           inkscape:connector-curvature="0" />
      </g>
      <text
         y="64.832771"
         x="99.198494"
         style="font-variant:normal;font-weight:normal;font-size:2.82222199px;font-family:Arial;-inkscape-font-specification:ArialMT;writing-mode:lr-tb;fill:#000000;fill-opacity:1;fill-rule:nonzero;stroke:none;stroke-width:0.35277775"
         id="text983">
        <tspan
           y="64.832771"
           x="99.198494"
           sodipodi:role="line"
           id="tspan981"
           style="stroke-width:0.35277775">server (GPU)</tspan>
      </text>
      <g
         id="g985"
         transform="matrix(0.35277777,0,0,0.35277777,51.526787,61.067514)">
        <path
           d="M 126.648,26.906 H 92.504"
           style="fill:none;stroke:#000000;stroke-width:0.80000001;stroke-linecap:butt;stroke-linejoin:miter;stroke-miterlimit:4;stroke-dasharray:none;stroke-opacity:1"
           id="path987"
           inkscape:connector-curvature="0" />
      </g>
      <g
         id="g989"
         transform="matrix(-0.35277777,0,0,-0.35277777,51.526787,61.067514)">
        <path
           d="m -123.445,-26.906 1.597,-1.602 -5.597,1.602 5.597,1.597 z"
           style="fill:#000000;fill-opacity:1;fill-rule:evenodd;stroke:#000000;stroke-width:0.40000001;stroke-linecap:butt;stroke-linejoin:miter;stroke-miterlimit:4;stroke-dasharray:none;stroke-opacity:1"
           id="path991"
           inkscape:connector-curvature="0" />
      </g>
      <g
         id="g993"
         transform="matrix(0.35277777,0,0,0.35277777,51.526787,61.067514)">
        <path
           d="m 95.703,26.906 1.602,-1.597 -5.602,1.597 5.602,1.602 z"
           style="fill:#000000;fill-opacity:1;fill-rule:evenodd;stroke:#000000;stroke-width:0.40000001;stroke-linecap:butt;stroke-linejoin:miter;stroke-miterlimit:4;stroke-dasharray:none;stroke-opacity:1"
           id="path995"
           inkscape:connector-curvature="0" />
      </g>
      <text
         y="69.775803"
         x="86.99382"
         style="font-variant:normal;font-weight:normal;font-size:2.82222199px;font-family:Arial;-inkscape-font-specification:ArialMT;writing-mode:lr-tb;fill:#000000;fill-opacity:1;fill-rule:nonzero;stroke:none;stroke-width:0.35277775"
         id="text999">
        <tspan
           x="86.99382 88.876244 90.913887 91.695641"
           y="69.775803"
           sodipodi:role="line"
           id="tspan997"
           style="stroke-width:0.35277775">PCIe</tspan>
      </text>
    </g>
  </g>
</svg>
