<?xml version="1.0" encoding="UTF-8" standalone="no"?>
<!-- Created with Inkscape (http://www.inkscape.org/) -->

<svg
   xmlns:dc="http://purl.org/dc/elements/1.1/"
   xmlns:cc="http://creativecommons.org/ns#"
   xmlns:rdf="http://www.w3.org/1999/02/22-rdf-syntax-ns#"
   xmlns:svg="http://www.w3.org/2000/svg"
   xmlns="http://www.w3.org/2000/svg"
   xmlns:sodipodi="http://sodipodi.sourceforge.net/DTD/sodipodi-0.dtd"
   xmlns:inkscape="http://www.inkscape.org/namespaces/inkscape"
   id="svg13111"
   version="1.1"
   inkscape:version="0.47 r22583"
   width="382.07047"
   height="117.16502"
   xml:space="preserve"
   sodipodi:docname="PGR-OpenGL-I.pdf"><metadata
     id="metadata13117"><rdf:RDF><cc:Work
         rdf:about=""><dc:format>image/svg+xml</dc:format><dc:type
           rdf:resource="http://purl.org/dc/dcmitype/StillImage" /><dc:title></dc:title></cc:Work></rdf:RDF></metadata><defs
     id="defs13115"><inkscape:perspective
       sodipodi:type="inkscape:persp3d"
       inkscape:vp_x="0 : 0.5 : 1"
       inkscape:vp_y="0 : 1000 : 0"
       inkscape:vp_z="1 : 0.5 : 1"
       inkscape:persp3d-origin="0.5 : 0.33333333 : 1"
       id="perspective13119" /><clipPath
       clipPathUnits="userSpaceOnUse"
       id="clipPath13131"><path
         d="m 0,2519.22 3628,0 0,201.781 -3628,0 0,-201.781 z"
         id="path13133" /></clipPath></defs><sodipodi:namedview
     pagecolor="#ffffff"
     bordercolor="#666666"
     borderopacity="1"
     objecttolerance="10"
     gridtolerance="10"
     guidetolerance="10"
     inkscape:pageopacity="0"
     inkscape:pageshadow="2"
     inkscape:window-width="650"
     inkscape:window-height="480"
     id="namedview13113"
     showgrid="false"
     inkscape:zoom="1.1308304"
     inkscape:cx="180.35841"
     inkscape:cy="46.912984"
     inkscape:window-x="1"
     inkscape:window-y="0"
     inkscape:window-maximized="0"
     inkscape:current-layer="g13121" /><g
     id="g13121"
     inkscape:groupmode="layer"
     inkscape:label="PGR-OpenGL-I"
     transform="matrix(1.25,0,0,-1.25,-52.990502,237.58846)"><path
       id="path13125"
       style="fill:none;stroke:#ffffff;stroke-width:272.13299561;stroke-linecap:butt;stroke-linejoin:miter;stroke-miterlimit:10;stroke-opacity:1;stroke-dasharray:none"
       d="m -114.05449,-1206.5984 362.835,0" /><g
       id="g17186"
       transform="translate(14.006692,-44.02103)"><path
         d="m 29.0266,141.356 123.18,0 0,78.1215 -123.18,0 0,-78.1215 z"
         style="fill:#ffffff;fill-opacity:1;fill-rule:nonzero;stroke:none"
         id="path14613" /><path
         d="m 29.0266,141.356 123.18,0 0,78.1215 -123.18,0 0,-78.1215 z"
         style="fill:none;stroke:#000000;stroke-width:1.28178;stroke-linecap:butt;stroke-linejoin:miter;stroke-miterlimit:10;stroke-opacity:1;stroke-dasharray:none"
         id="path14615" /><path
         d="m 170.569,140.98 116.126,0 0,78.1629 -116.126,0 0,-78.1629 z"
         style="fill:#ffffff;fill-opacity:1;fill-rule:nonzero;stroke:none"
         id="path14617" /><path
         d="m 170.569,140.98 116.126,0 0,78.1629 -116.126,0 0,-78.1629 z"
         style="fill:none;stroke:#000000;stroke-width:1.24044001;stroke-linecap:butt;stroke-linejoin:miter;stroke-miterlimit:10;stroke-opacity:1;stroke-dasharray:none"
         id="path14619" /><path
         d="m 314.138,171.724 19.159,0 0,17.3852 -19.159,0 0,-17.3852 z"
         style="fill:#ffffff;fill-opacity:1;fill-rule:nonzero;stroke:none"
         id="path14621" /><path
         d="m 314.138,171.724 19.159,0 0,17.3852 -19.159,0 0,-17.3852 z"
         style="fill:none;stroke:#000000;stroke-width:1.49013996;stroke-linecap:butt;stroke-linejoin:miter;stroke-miterlimit:10;stroke-opacity:1;stroke-dasharray:none"
         id="path14623" /><path
         d="m 324.072,171.37 0,-11.354"
         style="fill:none;stroke:#000000;stroke-width:1.49013996;stroke-linecap:butt;stroke-linejoin:miter;stroke-miterlimit:10;stroke-opacity:1;stroke-dasharray:none"
         id="path14625" /><path
         d="m 315.202,160.371 17.03,0"
         style="fill:none;stroke:#000000;stroke-width:1.49013996;stroke-linecap:butt;stroke-linejoin:miter;stroke-miterlimit:10;stroke-opacity:1;stroke-dasharray:none"
         id="path14627" /><path
         d="m 38.1945,232.882 0,-1.446 c -0.4621,0.43 -0.9543,0.752 -1.4773,0.964 -0.5227,0.213 -1.0785,0.32 -1.6672,0.32 -1.159,0 -2.0461,-0.355 -2.6621,-1.063 -0.6156,-0.709 -0.9234,-1.733 -0.9234,-3.073 0,-1.336 0.3078,-2.358 0.9234,-3.066 0.616,-0.709 1.5031,-1.063 2.6621,-1.063 0.5887,0 1.1445,0.106 1.6672,0.319 0.523,0.213 1.0152,0.534 1.4773,0.964 l 0,-1.433 c -0.48,-0.326 -0.9883,-0.57 -1.5246,-0.733 -0.5367,-0.163 -1.1039,-0.245 -1.7011,-0.245 -1.5348,0 -2.7438,0.47 -3.6266,1.41 -0.8828,0.939 -1.3242,2.222 -1.3242,3.847 0,1.63 0.4414,2.914 1.3242,3.854 0.8828,0.939 2.0918,1.409 3.6266,1.409 0.6066,0 1.1781,-0.081 1.7144,-0.241 0.5367,-0.161 1.0402,-0.402 1.5113,-0.724 l 0,0"
         style="fill:#000000;fill-opacity:1;fill-rule:nonzero;stroke:none"
         id="path14629" /><path
         d="m 40.2723,223.525 1.24961,0 0,10.5668 -1.24961,0 0,-10.5668 z"
         style="fill:#000000;fill-opacity:1;fill-rule:nonzero;stroke:none"
         id="path14631" /><path
         d="m 44.1297,231.13 1.2496,0 0,-7.605 -1.2496,0 0,7.605 z m 0,2.961 1.2496,0 0,-1.582 -1.2496,0 0,1.582"
         style="fill:#000000;fill-opacity:1;fill-rule:nonzero;stroke:none"
         id="path14633" /><path
         d="m 54.4926,227.64 0,-0.611 -5.7449,0 c 0.0543,-0.861 0.3132,-1.516 0.7773,-1.967 0.4641,-0.45 1.1105,-0.675 1.9391,-0.675 0.4797,0 0.9449,0.059 1.3953,0.177 0.4508,0.117 0.8976,0.294 1.3414,0.529 l 0,-1.181 c -0.4485,-0.191 -0.9078,-0.335 -1.3785,-0.435 -0.4711,-0.1 -0.9485,-0.15 -1.4328,-0.15 -1.2137,0 -2.1747,0.353 -2.8829,1.06 -0.7086,0.706 -1.0628,1.661 -1.0628,2.866 0,1.245 0.3359,2.233 1.0085,2.964 0.6723,0.731 1.5789,1.097 2.7196,1.097 1.0234,0 1.8324,-0.33 2.4277,-0.988 0.5953,-0.659 0.893,-1.555 0.893,-2.686 l 0,0 z m -1.2492,0.367 c -0.0094,0.683 -0.2004,1.229 -0.5739,1.636 -0.3738,0.408 -0.8683,0.611 -1.484,0.611 -0.6972,0 -1.255,-0.197 -1.6738,-0.59 C 49.093,229.27 48.8516,228.715 48.7883,228 l 4.4551,0.007"
         style="fill:#000000;fill-opacity:1;fill-rule:nonzero;stroke:none"
         id="path14635" /><path
         d="m 62.866,228.115 0,-4.59 -1.2496,0 0,4.55 c 0,0.719 -0.1402,1.258 -0.4211,1.616 -0.2805,0.357 -0.7015,0.536 -1.2629,0.536 -0.6746,0 -1.2066,-0.215 -1.5961,-0.645 -0.389,-0.43 -0.584,-1.016 -0.584,-1.759 l 0,-4.298 -1.2562,0 0,7.605 1.2562,0 0,-1.181 c 0.2989,0.457 0.6508,0.799 1.0563,1.025 0.4051,0.226 0.8726,0.34 1.4023,0.34 0.8735,0 1.5348,-0.271 1.9829,-0.812 0.448,-0.541 0.6722,-1.336 0.6722,-2.387 l 0,0"
         style="fill:#000000;fill-opacity:1;fill-rule:nonzero;stroke:none"
         id="path14637" /><path
         d="m 66.6078,233.29 0,-2.16 2.5738,0 0,-0.971 -2.5738,0 0,-4.129 c 0,-0.62 0.0852,-1.018 0.2547,-1.195 0.1699,-0.176 0.5152,-0.265 1.0355,-0.265 l 1.2836,0 0,-1.045 -1.2836,0 c -0.964,0 -1.6296,0.179 -1.9964,0.539 -0.3668,0.36 -0.55,1.016 -0.55,1.966 l 0,4.129 -0.9168,0 0,0.971 0.9168,0 0,2.16 1.2562,0"
         style="fill:#000000;fill-opacity:1;fill-rule:nonzero;stroke:none"
         id="path14639" /><path
         d="m 191.371,232.621 0,-1.338 c -0.521,0.249 -1.012,0.435 -1.474,0.557 -0.461,0.122 -0.908,0.183 -1.338,0.183 -0.747,0 -1.323,-0.144 -1.728,-0.434 -0.405,-0.29 -0.608,-0.702 -0.608,-1.236 0,-0.448 0.135,-0.787 0.404,-1.015 0.27,-0.229 0.78,-0.413 1.532,-0.554 l 0.828,-0.17 c 1.024,-0.194 1.778,-0.537 2.265,-1.028 0.487,-0.491 0.73,-1.149 0.73,-1.973 0,-0.983 -0.329,-1.727 -0.988,-2.234 -0.659,-0.508 -1.624,-0.761 -2.896,-0.761 -0.48,0 -0.991,0.054 -1.532,0.163 -0.541,0.108 -1.101,0.269 -1.68,0.482 l 0,1.413 c 0.556,-0.313 1.102,-0.548 1.636,-0.706 0.534,-0.159 1.06,-0.238 1.576,-0.238 0.783,0 1.387,0.154 1.813,0.461 0.425,0.308 0.638,0.748 0.638,1.318 0,0.498 -0.153,0.887 -0.458,1.168 -0.306,0.281 -0.807,0.491 -1.504,0.632 l -0.836,0.162 c -1.023,0.204 -1.763,0.523 -2.221,0.958 -0.457,0.435 -0.685,1.039 -0.685,1.813 0,0.897 0.316,1.603 0.947,2.119 0.632,0.516 1.502,0.774 2.611,0.774 0.476,0 0.96,-0.043 1.454,-0.129 0.493,-0.086 0.998,-0.215 1.514,-0.387 l 0,0"
         style="fill:#000000;fill-opacity:1;fill-rule:nonzero;stroke:none"
         id="path14641" /><path
         d="m 200.573,226.93 0,-0.611 -5.746,0 c 0.055,-0.86 0.314,-1.515 0.778,-1.966 0.464,-0.45 1.11,-0.676 1.939,-0.676 0.48,0 0.945,0.059 1.395,0.177 0.451,0.117 0.898,0.294 1.342,0.53 l 0,-1.182 c -0.449,-0.19 -0.908,-0.335 -1.379,-0.435 -0.471,-0.099 -0.948,-0.149 -1.433,-0.149 -1.213,0 -2.174,0.353 -2.883,1.059 -0.708,0.707 -1.062,1.662 -1.062,2.866 0,1.245 0.336,2.233 1.008,2.964 0.672,0.732 1.579,1.097 2.72,1.097 1.023,0 1.832,-0.329 2.428,-0.988 0.595,-0.659 0.893,-1.554 0.893,-2.686 l 0,0 z m -1.25,0.367 c -0.009,0.683 -0.2,1.229 -0.574,1.637 -0.373,0.407 -0.868,0.611 -1.483,0.611 -0.698,0 -1.256,-0.197 -1.675,-0.591 -0.418,-0.394 -0.659,-0.949 -0.723,-1.664 l 4.455,0.007"
         style="fill:#000000;fill-opacity:1;fill-rule:nonzero;stroke:none"
         id="path14643" /><path
         d="m 207.031,229.253 c -0.14,0.081 -0.293,0.141 -0.458,0.18 -0.166,0.038 -0.348,0.058 -0.547,0.058 -0.706,0 -1.249,-0.23 -1.626,-0.69 -0.379,-0.459 -0.568,-1.119 -0.568,-1.98 l 0,-4.006 -1.256,0 0,7.606 1.256,0 0,-1.182 c 0.263,0.462 0.605,0.805 1.026,1.029 0.421,0.224 0.933,0.336 1.535,0.336 0.086,0 0.181,-0.006 0.285,-0.017 0.104,-0.011 0.219,-0.028 0.346,-0.051 l 0.007,-1.283"
         style="fill:#000000;fill-opacity:1;fill-rule:nonzero;stroke:none"
         id="path14645" /><path
         d="m 207.459,230.421 1.324,0 2.377,-6.384 2.377,6.384 1.324,0 -2.852,-7.606 -1.698,0 -2.852,7.606"
         style="fill:#000000;fill-opacity:1;fill-rule:nonzero;stroke:none"
         id="path14647" /><path
         d="m 223.092,226.93 0,-0.611 -5.746,0 c 0.055,-0.86 0.314,-1.515 0.778,-1.966 0.464,-0.45 1.11,-0.676 1.939,-0.676 0.48,0 0.945,0.059 1.396,0.177 0.45,0.117 0.897,0.294 1.341,0.53 l 0,-1.182 c -0.448,-0.19 -0.908,-0.335 -1.379,-0.435 -0.471,-0.099 -0.948,-0.149 -1.433,-0.149 -1.213,0 -2.174,0.353 -2.883,1.059 -0.708,0.707 -1.062,1.662 -1.062,2.866 0,1.245 0.336,2.233 1.008,2.964 0.672,0.732 1.579,1.097 2.72,1.097 1.023,0 1.833,-0.329 2.428,-0.988 0.595,-0.659 0.893,-1.554 0.893,-2.686 l 0,0 z m -1.25,0.367 c -0.009,0.683 -0.2,1.229 -0.574,1.637 -0.373,0.407 -0.868,0.611 -1.484,0.611 -0.697,0 -1.255,-0.197 -1.673,-0.591 -0.419,-0.394 -0.66,-0.949 -0.724,-1.664 l 4.455,0.007"
         style="fill:#000000;fill-opacity:1;fill-rule:nonzero;stroke:none"
         id="path14649" /><path
         d="m 229.55,229.253 c -0.14,0.081 -0.293,0.141 -0.459,0.18 -0.165,0.038 -0.347,0.058 -0.546,0.058 -0.706,0 -1.249,-0.23 -1.627,-0.69 -0.378,-0.459 -0.566,-1.119 -0.566,-1.98 l 0,-4.006 -1.257,0 0,7.606 1.257,0 0,-1.182 c 0.262,0.462 0.604,0.805 1.025,1.029 0.421,0.224 0.932,0.336 1.535,0.336 0.086,0 0.181,-0.006 0.285,-0.017 0.104,-0.011 0.219,-0.028 0.346,-0.051 l 0.007,-1.283"
         style="fill:#000000;fill-opacity:1;fill-rule:nonzero;stroke:none"
         id="path14651" /><path
         d="m 113.779,150.537 29.2477,0 0,59.0504 -29.2477,0 0,-59.0504 z"
         style="fill:#ffffff;fill-opacity:1;fill-rule:nonzero;stroke:none"
         id="path14653" /><path
         d="m 113.779,150.537 29.2477,0 0,59.0504 -29.2477,0 0,-59.0504 z"
         style="fill:none;stroke:#000000;stroke-width:0.49671403;stroke-linecap:butt;stroke-linejoin:miter;stroke-miterlimit:10;stroke-opacity:1;stroke-dasharray:none"
         id="path14655" /><path
         d="m 175.768,183.788 105.374,0 0,30.1574 -105.374,0 0,-30.1574 z"
         style="fill:#ffffff;fill-opacity:1;fill-rule:nonzero;stroke:none"
         id="path14657" /><path
         d="m 175.768,183.788 105.374,0 0,30.1574 -105.374,0 0,-30.1574 z"
         style="fill:none;stroke:#000000;stroke-width:0.49671403;stroke-linecap:butt;stroke-linejoin:miter;stroke-miterlimit:10;stroke-opacity:1;stroke-dasharray:none"
         id="path14659" /><path
         d="m 176.122,147.243 103.955,0 0,28.0289 -103.955,0 0,-28.0289 z"
         style="fill:#ffffff;fill-opacity:1;fill-rule:nonzero;stroke:none"
         id="path14661" /><path
         d="m 176.122,147.243 103.955,0 0,28.0289 -103.955,0 0,-28.0289 z"
         style="fill:none;stroke:#000000;stroke-width:0.49671403;stroke-linecap:butt;stroke-linejoin:miter;stroke-miterlimit:10;stroke-opacity:1;stroke-dasharray:none"
         id="path14663" /><path
         d="m 37.3973,150.082 65.2824,0 0,59.2512 -65.2824,0 0,-59.2512 z"
         style="fill:#ffffff;fill-opacity:1;fill-rule:nonzero;stroke:none"
         id="path14665" /><path
         d="m 37.3973,150.082 65.2824,0 0,59.2512 -65.2824,0 0,-59.2512 z"
         style="fill:none;stroke:#000000;stroke-width:0.49671403;stroke-linecap:butt;stroke-linejoin:miter;stroke-miterlimit:10;stroke-opacity:1;stroke-dasharray:none"
         id="path14667" /><path
         d="m 43.3273,186.768 0,-3.81 1.725,0 c 0.6383,0 1.1317,0.165 1.4801,0.496 0.3488,0.33 0.5231,0.801 0.5231,1.412 0,0.607 -0.1743,1.075 -0.5231,1.406 -0.3484,0.33 -0.8418,0.496 -1.4801,0.496 l -1.725,0 z m -1.3718,1.127 3.0968,0 c 1.1364,0 1.9954,-0.257 2.577,-0.771 0.5816,-0.514 0.8727,-1.267 0.8727,-2.258 0,-1 -0.2911,-1.757 -0.8727,-2.268 -0.5816,-0.512 -1.4406,-0.768 -2.577,-0.768 l -1.725,0 0,-4.074 -1.3718,0 0,10.139"
         style="fill:#000000;fill-opacity:1;fill-rule:nonzero;stroke:none"
         id="path14669" /><path
         d="m 54.7023,184.194 c -0.1406,0.081 -0.2933,0.141 -0.4585,0.18 -0.1653,0.038 -0.3473,0.057 -0.5465,0.057 -0.7063,0 -1.2485,-0.229 -1.6266,-0.689 -0.3781,-0.46 -0.5672,-1.119 -0.5672,-1.98 l 0,-4.006 -1.2562,0 0,7.606 1.2562,0 0,-1.182 c 0.2625,0.462 0.6047,0.805 1.0254,1.029 0.4211,0.224 0.9328,0.336 1.5348,0.336 0.0863,0 0.1812,-0.006 0.2855,-0.017 0.1039,-0.011 0.2196,-0.028 0.3461,-0.051 l 0.007,-1.283"
         style="fill:#000000;fill-opacity:1;fill-rule:nonzero;stroke:none"
         id="path14671" /><path
         d="m 58.9738,184.486 c -0.6703,0 -1.2,-0.262 -1.589,-0.785 -0.3895,-0.522 -0.584,-1.239 -0.584,-2.149 0,-0.91 0.1933,-1.627 0.5804,-2.149 0.3872,-0.523 0.918,-0.785 1.5926,-0.785 0.6653,0 1.193,0.263 1.5821,0.788 0.3894,0.525 0.5843,1.24 0.5843,2.146 0,0.901 -0.1949,1.615 -0.5843,2.143 -0.3891,0.527 -0.9168,0.791 -1.5821,0.791 l 0,0 z m 0,1.059 c 1.0864,0 1.9399,-0.353 2.5602,-1.059 0.6203,-0.707 0.9305,-1.684 0.9305,-2.934 0,-1.245 -0.3102,-2.222 -0.9305,-2.931 -0.6203,-0.708 -1.4738,-1.062 -2.5602,-1.062 -1.091,0 -1.9457,0.354 -2.5636,1.062 -0.618,0.709 -0.927,1.686 -0.927,2.931 0,1.25 0.309,2.227 0.927,2.934 0.6179,0.706 1.4726,1.059 2.5636,1.059 l 0,0"
         style="fill:#000000;fill-opacity:1;fill-rule:nonzero;stroke:none"
         id="path14673" /><path
         d="m 69.5336,181.647 c 0,0.905 -0.1867,1.607 -0.5602,2.105 -0.3734,0.498 -0.8976,0.747 -1.5718,0.747 -0.6704,0 -1.1922,-0.249 -1.5657,-0.747 -0.3734,-0.498 -0.5601,-1.2 -0.5601,-2.105 0,-0.901 0.1867,-1.601 0.5601,-2.098 0.3735,-0.498 0.8953,-0.747 1.5657,-0.747 0.6742,0 1.1984,0.249 1.5718,0.747 0.3735,0.497 0.5602,1.197 0.5602,2.098 l 0,0 z m 1.2496,-2.947 c 0,-1.295 -0.2875,-2.258 -0.8625,-2.89 -0.575,-0.631 -1.4555,-0.947 -2.6414,-0.947 -0.4395,0 -0.8535,0.033 -1.243,0.098 -0.3894,0.066 -0.7672,0.167 -1.134,0.303 l 0,1.215 c 0.3668,-0.199 0.7289,-0.346 1.0864,-0.441 0.3578,-0.095 0.7222,-0.143 1.0933,-0.143 0.8196,0 1.4332,0.214 1.8407,0.642 0.4074,0.428 0.6109,1.074 0.6109,1.939 l 0,0.618 c -0.2578,-0.449 -0.5883,-0.783 -0.9914,-1.005 -0.4027,-0.222 -0.8852,-0.333 -1.4465,-0.333 -0.9324,0 -1.684,0.355 -2.2547,1.066 -0.5703,0.711 -0.8555,1.653 -0.8555,2.825 0,1.177 0.2852,2.121 0.8555,2.832 0.5707,0.711 1.3223,1.066 2.2547,1.066 0.5613,0 1.0438,-0.111 1.4465,-0.333 0.4031,-0.221 0.7336,-0.557 0.9914,-1.005 l 0,1.155 1.2496,0 0,-6.662"
         style="fill:#000000;fill-opacity:1;fill-rule:nonzero;stroke:none"
         id="path14675" /><path
         d="m 77.7645,184.194 c -0.1403,0.081 -0.293,0.141 -0.4583,0.18 -0.1656,0.038 -0.3476,0.057 -0.5468,0.057 -0.7063,0 -1.2485,-0.229 -1.6266,-0.689 -0.3777,-0.46 -0.5668,-1.119 -0.5668,-1.98 l 0,-4.006 -1.2566,0 0,7.606 1.2566,0 0,-1.182 c 0.2625,0.462 0.6043,0.805 1.0254,1.029 0.4211,0.224 0.9324,0.336 1.5348,0.336 0.0859,0 0.1808,-0.006 0.2851,-0.017 0.1043,-0.011 0.2196,-0.028 0.3465,-0.051 l 0.0067,-1.283"
         style="fill:#000000;fill-opacity:1;fill-rule:nonzero;stroke:none"
         id="path14677" /><path
         d="m 82.5453,181.579 c -1.0098,0 -1.709,-0.115 -2.0984,-0.346 -0.3895,-0.231 -0.584,-0.625 -0.584,-1.182 0,-0.444 0.1461,-0.796 0.4379,-1.056 0.2922,-0.26 0.6894,-0.39 1.1918,-0.39 0.6929,0 1.2484,0.245 1.6672,0.736 0.4187,0.492 0.6281,1.145 0.6281,1.96 l 0,0.278 -1.2426,0 z m 2.4922,0.516 0,-4.339 -1.2496,0 0,1.154 c -0.2852,-0.462 -0.6402,-0.802 -1.066,-1.022 -0.4254,-0.219 -0.9461,-0.329 -1.5617,-0.329 -0.779,0 -1.3981,0.218 -1.8575,0.655 -0.4597,0.437 -0.6894,1.022 -0.6894,1.756 0,0.855 0.2863,1.5 0.859,1.935 0.5726,0.435 1.4273,0.652 2.5636,0.652 l 1.752,0 0,0.122 c 0,0.575 -0.1887,1.02 -0.5668,1.335 -0.3781,0.315 -0.909,0.472 -1.5926,0.472 -0.4347,0 -0.8578,-0.052 -1.2699,-0.156 -0.4121,-0.105 -0.8082,-0.261 -1.1883,-0.469 l 0,1.154 c 0.457,0.177 0.9008,0.309 1.3309,0.397 0.43,0.089 0.8488,0.133 1.2562,0.133 1.1004,0 1.9219,-0.285 2.4653,-0.856 0.5433,-0.57 0.8148,-1.435 0.8148,-2.594 l 0,0"
         style="fill:#000000;fill-opacity:1;fill-rule:nonzero;stroke:none"
         id="path14679" /><path
         d="m 93.5398,183.902 c 0.3125,0.561 0.686,0.975 1.1207,1.243 0.4344,0.267 0.9461,0.4 1.5348,0.4 0.7922,0 1.4035,-0.277 1.8336,-0.832 0.4301,-0.554 0.6449,-1.343 0.6449,-2.367 l 0,-4.59 -1.2562,0 0,4.55 c 0,0.729 -0.1289,1.27 -0.3871,1.623 -0.2578,0.353 -0.652,0.53 -1.1817,0.53 -0.6472,0 -1.159,-0.216 -1.5347,-0.646 -0.3758,-0.43 -0.5637,-1.016 -0.5637,-1.758 l 0,-4.299 -1.2563,0 0,4.55 c 0,0.733 -0.1289,1.275 -0.3871,1.626 -0.2582,0.351 -0.6562,0.527 -1.1953,0.527 -0.6383,0 -1.1453,-0.217 -1.5211,-0.649 -0.3758,-0.432 -0.5636,-1.017 -0.5636,-1.755 l 0,-4.299 -1.2563,0 0,7.606 1.2563,0 0,-1.182 c 0.2851,0.466 0.6269,0.811 1.0253,1.032 0.3985,0.222 0.8715,0.333 1.4196,0.333 0.5523,0 1.0219,-0.14 1.409,-0.421 0.3871,-0.281 0.6734,-0.688 0.8589,-1.222 l 0,0"
         style="fill:#000000;fill-opacity:1;fill-rule:nonzero;stroke:none"
         id="path14681" /><path
         d="m 125.859,178.493 0,2.723 -2.241,0 0,1.127 3.6,0 0,-4.353 c -0.53,-0.376 -1.114,-0.66 -1.752,-0.852 -0.639,-0.193 -1.32,-0.289 -2.045,-0.289 -1.584,0 -2.823,0.463 -3.717,1.389 -0.895,0.926 -1.342,2.215 -1.342,3.867 0,1.657 0.447,2.949 1.342,3.875 0.894,0.925 2.133,1.389 3.717,1.389 0.661,0 1.29,-0.082 1.885,-0.245 0.595,-0.163 1.144,-0.403 1.647,-0.72 l 0,-1.46 c -0.507,0.43 -1.046,0.754 -1.617,0.971 -0.57,0.217 -1.17,0.326 -1.799,0.326 -1.241,0 -2.172,-0.346 -2.795,-1.039 -0.622,-0.693 -0.933,-1.725 -0.933,-3.097 0,-1.367 0.311,-2.397 0.933,-3.089 0.623,-0.693 1.554,-1.039 2.795,-1.039 0.484,0 0.917,0.041 1.297,0.125 0.38,0.084 0.722,0.214 1.025,0.391 l 0,0"
         style="fill:#000000;fill-opacity:1;fill-rule:nonzero;stroke:none"
         id="path14683" /><path
         d="m 129.73,187.185 1.372,0 0,-8.984 4.937,0 0,-1.155 -6.309,0 0,10.139"
         style="fill:#000000;fill-opacity:1;fill-rule:nonzero;stroke:none"
         id="path14685" /><path
         d="m 197.001,204.925 2.044,0 2.588,-6.9 2.601,6.9 2.044,0 0,-10.139 -1.338,0 0,8.903 -2.615,-6.954 -1.378,0 -2.615,6.954 0,-8.903 -1.331,0 0,10.139"
         style="fill:#000000;fill-opacity:1;fill-rule:nonzero;stroke:none"
         id="path14687" /><path
         d="m 215.459,198.901 0,-0.611 -5.745,0 c 0.054,-0.86 0.313,-1.515 0.777,-1.966 0.464,-0.45 1.111,-0.676 1.939,-0.676 0.48,0 0.945,0.059 1.396,0.177 0.451,0.118 0.897,0.294 1.341,0.53 l 0,-1.182 c -0.448,-0.19 -0.908,-0.335 -1.378,-0.435 -0.471,-0.099 -0.949,-0.149 -1.434,-0.149 -1.213,0 -2.174,0.353 -2.882,1.059 -0.709,0.707 -1.063,1.662 -1.063,2.866 0,1.245 0.336,2.233 1.008,2.965 0.673,0.731 1.579,1.096 2.72,1.096 1.023,0 1.833,-0.329 2.428,-0.988 0.595,-0.658 0.893,-1.554 0.893,-2.686 l 0,0 z m -1.249,0.367 c -0.01,0.684 -0.201,1.229 -0.574,1.637 -0.374,0.407 -0.868,0.611 -1.484,0.611 -0.697,0 -1.255,-0.197 -1.674,-0.591 -0.419,-0.394 -0.66,-0.948 -0.723,-1.664 l 4.455,0.007"
         style="fill:#000000;fill-opacity:1;fill-rule:nonzero;stroke:none"
         id="path14689" /><path
         d="m 223.432,200.932 c 0.312,0.561 0.686,0.975 1.12,1.243 0.435,0.267 0.946,0.4 1.535,0.4 0.792,0 1.404,-0.277 1.834,-0.832 0.43,-0.554 0.645,-1.343 0.645,-2.366 l 0,-4.591 -1.257,0 0,4.55 c 0,0.729 -0.129,1.27 -0.387,1.623 -0.258,0.353 -0.652,0.53 -1.181,0.53 -0.648,0 -1.159,-0.215 -1.535,-0.645 -0.376,-0.43 -0.564,-1.017 -0.564,-1.759 l 0,-4.299 -1.256,0 0,4.55 c 0,0.734 -0.129,1.276 -0.387,1.626 -0.258,0.351 -0.656,0.527 -1.195,0.527 -0.639,0 -1.146,-0.216 -1.522,-0.649 -0.375,-0.432 -0.563,-1.017 -0.563,-1.755 l 0,-4.299 -1.257,0 0,7.606 1.257,0 0,-1.182 c 0.285,0.467 0.627,0.811 1.025,1.033 0.399,0.221 0.872,0.332 1.42,0.332 0.552,0 1.022,-0.14 1.409,-0.421 0.387,-0.281 0.673,-0.688 0.859,-1.222 l 0,0"
         style="fill:#000000;fill-opacity:1;fill-rule:nonzero;stroke:none"
         id="path14691" /><path
         d="m 234.012,201.516 c -0.67,0 -1.2,-0.262 -1.589,-0.784 -0.389,-0.523 -0.584,-1.24 -0.584,-2.15 0,-0.91 0.193,-1.626 0.581,-2.149 0.387,-0.523 0.918,-0.785 1.592,-0.785 0.666,0 1.193,0.263 1.583,0.788 0.389,0.525 0.584,1.241 0.584,2.146 0,0.901 -0.195,1.615 -0.584,2.143 -0.39,0.527 -0.917,0.791 -1.583,0.791 l 0,0 z m 0,1.059 c 1.087,0 1.94,-0.353 2.56,-1.059 0.621,-0.706 0.931,-1.684 0.931,-2.934 0,-1.245 -0.31,-2.221 -0.931,-2.93 -0.62,-0.709 -1.473,-1.063 -2.56,-1.063 -1.091,0 -1.946,0.354 -2.564,1.063 -0.618,0.709 -0.927,1.685 -0.927,2.93 0,1.25 0.309,2.228 0.927,2.934 0.618,0.706 1.473,1.059 2.564,1.059 l 0,0"
         style="fill:#000000;fill-opacity:1;fill-rule:nonzero;stroke:none"
         id="path14693" /><path
         d="m 243.975,201.224 c -0.141,0.081 -0.293,0.141 -0.459,0.18 -0.165,0.038 -0.347,0.058 -0.546,0.058 -0.707,0 -1.249,-0.23 -1.627,-0.69 -0.378,-0.459 -0.567,-1.119 -0.567,-1.979 l 0,-4.007 -1.256,0 0,7.606 1.256,0 0,-1.182 c 0.263,0.462 0.604,0.805 1.026,1.029 0.421,0.224 0.932,0.336 1.534,0.336 0.086,0 0.181,-0.005 0.285,-0.017 0.105,-0.011 0.22,-0.028 0.347,-0.051 l 0.007,-1.283"
         style="fill:#000000;fill-opacity:1;fill-rule:nonzero;stroke:none"
         id="path14695" /><path
         d="m 248.463,194.08 c -0.353,-0.906 -0.697,-1.496 -1.032,-1.773 -0.335,-0.276 -0.783,-0.414 -1.344,-0.414 l -0.999,0 0,1.046 0.734,0 c 0.344,0 0.611,0.081 0.801,0.244 0.19,0.163 0.401,0.548 0.632,1.155 l 0.224,0.57 -3.077,7.484 1.325,0 2.377,-5.949 2.376,5.949 1.325,0 -3.342,-8.312"
         style="fill:#000000;fill-opacity:1;fill-rule:nonzero;stroke:none"
         id="path14697" /><path
         d="m 198.018,166.544 0,-3.81 1.725,0 c 0.639,0 1.132,0.166 1.48,0.496 0.349,0.331 0.523,0.802 0.523,1.413 0,0.606 -0.174,1.075 -0.523,1.405 -0.348,0.331 -0.841,0.496 -1.48,0.496 l -1.725,0 z m -1.372,1.127 3.097,0 c 1.136,0 1.996,-0.257 2.577,-0.77 0.582,-0.514 0.873,-1.267 0.873,-2.258 0,-1.001 -0.291,-1.757 -0.873,-2.268 -0.581,-0.512 -1.441,-0.768 -2.577,-0.768 l -1.725,0 0,-4.075 -1.372,0 0,10.139"
         style="fill:#000000;fill-opacity:1;fill-rule:nonzero;stroke:none"
         id="path14699" /><path
         d="m 204.986,165.138 1.249,0 0,-7.606 -1.249,0 0,7.606 z m 0,2.961 1.249,0 0,-1.582 -1.249,0 0,1.582"
         style="fill:#000000;fill-opacity:1;fill-rule:nonzero;stroke:none"
         id="path14701" /><path
         d="m 210.052,158.673 0,-4.034 -1.256,0 0,10.499 1.256,0 0,-1.154 c 0.262,0.453 0.594,0.789 0.995,1.009 0.4,0.219 0.879,0.329 1.436,0.329 0.924,0 1.674,-0.367 2.251,-1.101 0.577,-0.733 0.866,-1.697 0.866,-2.892 0,-1.195 -0.289,-2.16 -0.866,-2.893 -0.577,-0.734 -1.327,-1.1 -2.251,-1.1 -0.557,0 -1.036,0.109 -1.436,0.329 -0.401,0.219 -0.733,0.556 -0.995,1.008 l 0,0 z m 4.251,2.656 c 0,0.919 -0.189,1.64 -0.567,2.162 -0.378,0.523 -0.898,0.785 -1.559,0.785 -0.661,0 -1.18,-0.262 -1.558,-0.785 -0.378,-0.522 -0.567,-1.243 -0.567,-2.162 0,-0.919 0.189,-1.64 0.567,-2.163 0.378,-0.523 0.897,-0.785 1.558,-0.785 0.661,0 1.181,0.262 1.559,0.785 0.378,0.523 0.567,1.244 0.567,2.163 l 0,0"
         style="fill:#000000;fill-opacity:1;fill-rule:nonzero;stroke:none"
         id="path14703" /><path
         d="m 224.177,161.648 0,-0.611 -5.745,0 c 0.054,-0.86 0.313,-1.516 0.777,-1.966 0.464,-0.451 1.111,-0.676 1.939,-0.676 0.48,0 0.945,0.059 1.396,0.176 0.451,0.118 0.897,0.295 1.341,0.53 l 0,-1.181 c -0.448,-0.191 -0.908,-0.336 -1.378,-0.435 -0.471,-0.1 -0.949,-0.149 -1.433,-0.149 -1.214,0 -2.175,0.353 -2.883,1.059 -0.709,0.706 -1.063,1.662 -1.063,2.866 0,1.245 0.336,2.233 1.009,2.964 0.672,0.731 1.579,1.097 2.719,1.097 1.024,0 1.833,-0.33 2.428,-0.988 0.595,-0.659 0.893,-1.554 0.893,-2.686 l 0,0 z m -1.249,0.366 c -0.01,0.684 -0.201,1.23 -0.574,1.637 -0.374,0.408 -0.868,0.611 -1.484,0.611 -0.697,0 -1.255,-0.197 -1.674,-0.591 -0.419,-0.393 -0.66,-0.948 -0.723,-1.663 l 4.455,0.006"
         style="fill:#000000;fill-opacity:1;fill-rule:nonzero;stroke:none"
         id="path14705" /><path
         d="m 226.228,157.532 1.24961,0 0,10.5668 -1.24961,0 0,-10.5668 z"
         style="fill:#000000;fill-opacity:1;fill-rule:nonzero;stroke:none"
         id="path14707" /><path
         d="m 230.085,165.138 1.25,0 0,-7.606 -1.25,0 0,7.606 z m 0,2.961 1.25,0 0,-1.582 -1.25,0 0,1.582"
         style="fill:#000000;fill-opacity:1;fill-rule:nonzero;stroke:none"
         id="path14709" /><path
         d="m 240.265,162.123 0,-4.591 -1.249,0 0,4.55 c 0,0.72 -0.141,1.259 -0.421,1.617 -0.281,0.357 -0.702,0.536 -1.264,0.536 -0.674,0 -1.206,-0.215 -1.595,-0.645 -0.39,-0.43 -0.584,-1.016 -0.584,-1.759 l 0,-4.299 -1.257,0 0,7.606 1.257,0 0,-1.181 c 0.298,0.457 0.65,0.799 1.055,1.025 0.405,0.227 0.873,0.34 1.403,0.34 0.874,0 1.535,-0.271 1.983,-0.812 0.448,-0.541 0.672,-1.337 0.672,-2.387 l 0,0"
         style="fill:#000000;fill-opacity:1;fill-rule:nonzero;stroke:none"
         id="path14711" /><path
         d="m 249.277,161.648 0,-0.611 -5.745,0 c 0.054,-0.86 0.313,-1.516 0.777,-1.966 0.464,-0.451 1.111,-0.676 1.939,-0.676 0.48,0 0.945,0.059 1.395,0.176 0.451,0.118 0.898,0.295 1.342,0.53 l 0,-1.181 c -0.449,-0.191 -0.908,-0.336 -1.379,-0.435 -0.471,-0.1 -0.948,-0.149 -1.433,-0.149 -1.213,0 -2.174,0.353 -2.882,1.059 -0.709,0.706 -1.063,1.662 -1.063,2.866 0,1.245 0.336,2.233 1.008,2.964 0.673,0.731 1.579,1.097 2.72,1.097 1.023,0 1.832,-0.33 2.428,-0.988 0.595,-0.659 0.893,-1.554 0.893,-2.686 l 0,0 z m -1.25,0.366 c -0.009,0.684 -0.2,1.23 -0.573,1.637 -0.374,0.408 -0.869,0.611 -1.484,0.611 -0.698,0 -1.256,-0.197 -1.674,-0.591 -0.419,-0.393 -0.66,-0.948 -0.724,-1.663 l 4.455,0.006"
         style="fill:#000000;fill-opacity:1;fill-rule:nonzero;stroke:none"
         id="path14713" /><path
         d="m 103.034,179.885 10.645,0"
         style="fill:none;stroke:#000000;stroke-width:1.49013996;stroke-linecap:butt;stroke-linejoin:miter;stroke-miterlimit:10;stroke-opacity:1;stroke-dasharray:none"
         id="path14715" /><path
         d="m 104.823,179.885 1.49,1.49 -5.216,-1.49 5.216,-1.49 -1.49,1.49"
         style="fill:#000000;fill-opacity:1;fill-rule:evenodd;stroke:none"
         id="path14717" /><path
         d="m 104.823,179.885 1.49,1.49 -5.216,-1.49 5.216,-1.49 -1.49,1.49 z"
         style="fill:none;stroke:#000000;stroke-width:0.372536;stroke-linecap:butt;stroke-linejoin:miter;stroke-miterlimit:10;stroke-opacity:1;stroke-dasharray:none"
         id="path14719" /><path
         d="m 111.89,179.885 -1.49,-1.49 5.216,1.49 -5.216,1.49 1.49,-1.49"
         style="fill:#000000;fill-opacity:1;fill-rule:evenodd;stroke:none"
         id="path14721" /><path
         d="m 111.89,179.885 -1.49,-1.49 5.216,1.49 -5.216,1.49 1.49,-1.49 z"
         style="fill:none;stroke:#000000;stroke-width:0.372536;stroke-linecap:butt;stroke-linejoin:miter;stroke-miterlimit:10;stroke-opacity:1;stroke-dasharray:none"
         id="path14723" /><path
         d="m 142.771,179.53 27.675,0.355"
         style="fill:none;stroke:#000000;stroke-width:1.49013996;stroke-linecap:butt;stroke-linejoin:miter;stroke-miterlimit:10;stroke-opacity:1;stroke-dasharray:none"
         id="path14725" /><path
         d="m 144.56,179.553 1.47,1.509 -5.195,-1.557 5.234,-1.423 -1.509,1.471"
         style="fill:#000000;fill-opacity:1;fill-rule:evenodd;stroke:none"
         id="path14727" /><path
         d="m 144.56,179.553 1.47,1.509 -5.195,-1.557 5.234,-1.423 -1.509,1.471 z"
         style="fill:none;stroke:#000000;stroke-width:0.37253499;stroke-linecap:butt;stroke-linejoin:miter;stroke-miterlimit:10;stroke-opacity:1;stroke-dasharray:none"
         id="path14729" /><path
         d="m 168.658,179.862 -1.471,-1.509 5.196,1.556 -5.235,1.423 1.51,-1.47"
         style="fill:#000000;fill-opacity:1;fill-rule:evenodd;stroke:none"
         id="path14731" /><path
         d="m 168.658,179.862 -1.471,-1.509 5.196,1.556 -5.235,1.423 1.51,-1.47 z"
         style="fill:none;stroke:#000000;stroke-width:0.37253499;stroke-linecap:butt;stroke-linejoin:miter;stroke-miterlimit:10;stroke-opacity:1;stroke-dasharray:none"
         id="path14733" /><path
         d="m 286.819,179.53 25.19,0.355"
         style="fill:none;stroke:#000000;stroke-width:1.49013996;stroke-linecap:butt;stroke-linejoin:miter;stroke-miterlimit:10;stroke-opacity:1;stroke-dasharray:none"
         id="path14735" /><path
         d="m 310.221,179.859 -1.469,-1.511 5.194,1.564 -5.236,1.417 1.511,-1.47"
         style="fill:#000000;fill-opacity:1;fill-rule:evenodd;stroke:none"
         id="path14737" /><path
         d="m 310.221,179.859 -1.469,-1.511 5.194,1.564 -5.236,1.417 1.511,-1.47 z"
         style="fill:none;stroke:#000000;stroke-width:0.372536;stroke-linecap:butt;stroke-linejoin:miter;stroke-miterlimit:10;stroke-opacity:1;stroke-dasharray:none"
         id="path14739" /></g></g></svg>